<svg width="200" height="200" viewBox="0 0 352 110" fill="none" xmlns="http://www.w3.org/2000/svg">
<path d="M340.715 109.5H11.7431C5.98953 109.5 1.27734 104.775 1.27734 99V11C1.27734 5.22467 5.98953 0.5 11.7431 0.5H340.715C346.468 0.5 351.181 5.22467 351.181 11V99C351.181 104.775 346.468 109.5 340.715 109.5Z" fill="black" stroke="#A6A6A6"/>
<path d="M79.046 77.538L79.0458 77.5379L79.0384 77.549C77.6661 79.6139 76.2564 81.6288 74.627 83.1299C73.0069 84.6224 71.2032 85.5757 69.0374 85.5757C66.8772 85.5757 65.471 84.9619 63.9414 84.2941C63.902 84.2769 63.8625 84.2597 63.823 84.2424C62.2295 83.5474 60.5075 82.8257 57.7976 82.8257C55.0992 82.8257 53.3162 83.4713 51.6813 84.1343C51.5462 84.1891 51.4123 84.2438 51.2794 84.2982C49.8125 84.8985 48.4496 85.4562 46.5264 85.5767C44.5346 85.7016 42.7458 84.7091 41.0411 83.0997C39.4203 81.5694 37.9436 79.5475 36.4995 77.5701C36.4247 77.4677 36.3499 77.3654 36.2753 77.2633C33.4386 73.06 30.932 67.1489 29.8823 61.001C28.8314 54.8456 29.2503 48.5141 32.187 43.4257C35.1245 38.3359 40.1784 35.1508 45.7353 35.1508C47.8239 35.1508 49.8694 35.8721 51.7887 36.6285C52.0077 36.7148 52.2258 36.8018 52.4423 36.8882C53.161 37.1751 53.8619 37.4548 54.5192 37.6768C55.3737 37.9655 56.2069 38.1758 56.9751 38.1758C57.6879 38.1758 58.55 37.9226 59.4646 37.5968C59.9302 37.4309 60.4269 37.2394 60.943 37.04L60.9893 37.0221C61.4932 36.8275 62.0173 36.625 62.5608 36.4268C64.8094 35.6065 67.3203 34.8867 69.8026 35.1475C71.9258 35.4139 77.5277 36.1898 81.4938 41.4143C81.2698 41.5723 80.9676 41.7908 80.6141 42.0702C79.8887 42.6435 78.9465 43.4736 78.012 44.5702C76.1419 46.7647 74.2944 50.038 74.2944 54.4508C74.2944 59.7072 76.6382 63.2013 79.0119 65.4047C80.1955 66.5034 81.3857 67.2812 82.2951 67.8012C82.7501 68.0614 83.1355 68.2574 83.413 68.3958C83.4603 68.4194 83.5034 68.4408 83.5427 68.4603C83.5023 68.6036 83.4465 68.7876 83.3745 69.0078C83.1989 69.5446 82.9296 70.2879 82.558 71.169C81.8144 72.9321 80.6655 75.2364 79.046 77.538ZM83.8235 68.6047C83.8231 68.6045 83.8208 68.6031 83.817 68.6005C83.8221 68.6036 83.8241 68.6049 83.8235 68.6047Z" fill="white" stroke="white"/>
<path d="M60.3667 23.7059L60.3829 23.6876L60.3973 23.6678C61.4338 22.2381 63.0069 21.0468 64.74 20.1775C66.286 19.4021 67.9319 18.8968 69.3869 18.7036C69.4864 22.4708 67.9564 26.0027 65.9083 28.8347C63.5971 31.4014 60.1081 33.4148 56.8753 33.3458C56.5388 29.8018 58.3143 26.0221 60.3667 23.7059Z" fill="white" stroke="white"/>
<path d="M128.457 74.9241L128.347 74.5742H127.98H116.466H116.09L115.986 74.9356L113.074 85.0242H108.381L119.571 50.5493H125.966L136.623 85.0242H131.636L128.457 74.9241ZM126.883 71.1742H127.57L127.359 70.5208L124.344 61.1708L124.344 61.1708L124.342 61.1666C124.256 60.9063 124.141 60.4731 123.982 59.877C123.9 59.5683 123.807 59.2159 123.699 58.8212C123.389 57.6817 122.976 56.2284 122.423 54.5666L121.828 52.7744L121.458 54.6265C121.187 55.99 120.642 58.4468 119.826 61.1759L116.813 70.5208L116.602 71.1742H117.288H126.883Z" fill="white" stroke="white"/>
<path d="M147.492 82.7748V95.7498H142.735V68.7498V68.7418C142.735 66.1611 142.735 63.5593 142.506 60.7248H146.428L146.671 64.383L146.772 65.9097L147.592 64.6177C149.423 61.7308 152.009 60.1748 155.668 60.1748C158.539 60.1748 160.857 61.211 162.675 63.5562L162.703 63.5924L162.737 63.623C165.067 65.7004 166.134 68.5697 166.134 72.5998C166.134 76.9004 165.068 80.0694 162.707 82.7061C160.607 84.8089 158.268 85.8498 155.12 85.8498C151.947 85.8498 149.684 84.7986 148.43 82.5326L147.492 80.84V82.7748ZM161.377 72.5998C161.377 70.0812 160.824 67.757 159.636 66.2551C158.436 64.461 156.629 63.5748 154.297 63.5748C152.797 63.5748 151.324 64.174 150.159 65.0503C148.964 65.9489 148.084 67.4213 147.782 68.8965C147.494 69.777 147.492 70.3769 147.492 70.6748V75.0748C147.492 77.1208 148.084 78.6043 149.246 80.0616C150.463 81.5877 152.273 82.1748 154.023 82.1748C156.353 82.1748 158.159 81.29 159.359 79.4988C160.822 77.7257 161.377 75.3986 161.377 72.5998Z" fill="white" stroke="white"/>
<path d="M176.826 82.7748V95.7498H172.069V68.7498V68.7412C172.069 66.1606 172.069 63.5591 171.84 60.7248H175.762L176.005 64.383L176.106 65.9097L176.926 64.6177C178.757 61.7308 181.343 60.1748 185.002 60.1748C187.873 60.1748 190.19 61.211 192.009 63.5562L192.037 63.5924L192.071 63.623C194.401 65.7004 195.468 68.5697 195.468 72.5998C195.468 76.9004 194.402 80.0694 192.041 82.7061C189.94 84.8089 187.602 85.8498 184.454 85.8498C181.281 85.8498 179.018 84.7986 177.763 82.5326L176.826 80.84V82.7748ZM190.711 72.5998C190.711 70.0812 190.158 67.757 188.97 66.2551C187.77 64.461 185.963 63.5748 183.631 63.5748C182.131 63.5748 180.657 64.174 179.493 65.0503C178.298 65.9489 177.418 67.4213 177.116 68.8965C176.828 69.777 176.826 70.3769 176.826 70.6748V75.0748C176.826 77.1208 177.418 78.6043 178.58 80.0616C179.797 81.5877 181.607 82.1748 183.357 82.1748C185.687 82.1748 187.493 81.29 188.693 79.4988C190.156 77.7257 190.711 75.3986 190.711 72.5998Z" fill="white" stroke="white"/>
<path d="M207.795 83.6462L208.884 79.9322C211.274 81.1663 213.915 81.9003 216.802 81.9003C219.076 81.9003 220.834 81.3301 222.037 80.4248L222.066 80.4035L222.091 80.3783C222.669 79.7987 223.122 79.1993 223.427 78.5091C223.734 77.8167 223.882 77.0584 223.882 76.1753C223.882 74.6843 223.292 73.177 222.365 72.2473C221.188 71.0665 219.456 70.2112 217.252 69.3823L217.252 69.3822L217.241 69.3782C211.042 67.2152 208.255 63.7773 208.255 59.6753C208.255 56.8039 209.282 54.7377 211.375 52.901C213.448 51.0817 216.056 50.2753 219.818 50.2753C222.857 50.2753 225.151 50.7527 227.169 51.6911L226.091 55.367C224.219 54.4177 222.101 53.9503 219.543 53.9503C217.535 53.9503 215.78 54.5249 214.582 55.4257L214.554 55.4471L214.529 55.4723C213.623 56.3809 213.012 57.6043 213.012 59.1253C213.012 60.6644 213.638 61.8848 214.803 63.0533C215.277 63.5283 216.027 63.9711 216.921 64.4191C217.716 64.8182 218.672 65.2437 219.727 65.7131C219.87 65.7769 220.015 65.8415 220.162 65.907L220.178 65.914L220.195 65.92C223.102 66.9806 225.223 68.5655 226.822 70.1596C227.602 71.4788 228.364 73.2978 228.364 75.6253C228.364 78.5167 227.321 80.8651 225.495 82.6973C223.441 84.7571 220.317 85.5753 216.254 85.5753C212.674 85.5753 209.863 84.8444 207.795 83.6462Z" fill="white" stroke="white"/>
<path d="M236.217 55.6468L240.7 54.2977V59.9501V60.4501H241.2H247.005V63.8501H241.2H240.7V64.3501V76.7251C240.7 78.2842 240.98 79.5715 241.611 80.482C242.264 81.4228 243.249 81.9001 244.489 81.9001H244.506C245.041 81.9001 245.538 81.9001 245.97 81.864C246.15 81.849 246.327 81.8273 246.497 81.7942L246.71 85.2092C245.787 85.5657 244.612 85.5751 242.845 85.5751C240.709 85.5751 238.982 85.0362 238.027 83.8384L238.01 83.8167L237.99 83.7971C236.767 82.5704 236.217 80.5477 236.217 77.2751V64.3501V63.8501H235.717H232.379V60.4501H235.717H236.217V59.9501V55.6468Z" fill="white" stroke="white"/>
<path d="M254.715 63.6036L254.725 63.5932L254.735 63.5822C256.819 61.2302 259.964 59.9006 263.682 59.9006C267.381 59.9006 270.253 61.2174 272.343 63.57C274.184 65.95 275.244 68.862 275.244 72.6007C275.244 76.3491 274.179 79.5187 272.09 81.8831C269.715 84.2611 266.828 85.5757 263.133 85.5757C259.428 85.5757 256.552 84.2544 254.461 81.8941C252.359 79.5219 251.297 76.6195 251.297 72.8757C251.297 69.1231 252.363 65.9628 254.715 63.6036ZM268.475 79.2157L268.48 79.2091L268.484 79.2024C269.648 77.4521 270.213 75.1495 270.213 72.8757C270.213 70.3272 269.648 68.3058 268.494 66.5632C267.306 64.4901 265.225 63.3006 262.859 63.3006C260.494 63.3006 258.412 64.4901 257.225 66.5632C256.068 68.3118 255.506 70.608 255.506 72.8757C255.506 75.4241 256.071 77.4455 257.225 79.1882C258.412 81.2613 260.494 82.4507 262.859 82.4507C265.26 82.4507 267.041 81.2297 268.475 79.2157Z" fill="white" stroke="white"/>
<path d="M287.14 66.5125L287.119 66.5388L287.102 66.5676C286.238 68.012 285.66 69.7498 285.66 71.7743V84.7493H280.903V67.6493V67.6304C280.903 64.8424 280.903 62.4936 280.683 60.1743H284.59L284.838 64.6519L284.865 65.1243H285.338H285.612H285.973L286.086 64.7819C286.592 63.2589 287.607 61.9638 288.664 60.896C289.982 60.1098 291.242 59.6243 292.465 59.6243H292.469H292.472H292.475H292.478H292.481H292.485H292.488H292.491H292.494H292.498H292.501H292.504H292.507H292.51H292.514H292.517H292.52H292.523H292.526H292.53H292.533H292.536H292.539H292.542H292.546H292.549H292.552H292.555H292.559H292.562H292.565H292.568H292.571H292.575H292.578H292.581H292.584H292.587H292.591H292.594H292.597H292.6H292.603H292.607H292.61H292.613H292.616H292.619H292.623H292.626H292.629H292.632H292.635H292.639H292.642H292.645H292.648H292.651H292.655H292.658H292.661H292.664H292.667H292.67H292.674H292.677H292.68H292.683H292.686H292.69H292.693H292.696H292.699H292.702H292.705H292.709H292.712H292.715H292.718H292.721H292.725H292.728H292.731H292.734H292.737H292.74H292.744H292.747H292.75H292.753H292.756H292.759H292.763H292.766H292.769H292.772H292.775H292.778H292.781H292.785H292.788H292.791H292.794H292.797H292.8H292.803H292.807H292.81H292.813H292.816H292.819H292.822H292.825H292.829H292.832H292.835H292.838H292.841H292.844H292.847H292.85H292.854H292.857H292.86H292.863H292.866H292.869H292.872H292.875H292.879H292.882H292.885H292.888H292.891H292.894H292.897H292.9H292.903H292.906H292.91H292.913H292.916H292.919H292.922H292.925H292.928H292.931H292.934H292.937H292.94H292.943H292.947H292.95H292.953H292.956H292.959H292.962H292.965H292.968H292.971H292.974H292.977H292.98H292.983H292.986H292.989H292.992H292.995H292.998H293.002H293.005H293.008H293.011H293.014H293.017H293.02H293.023H293.026H293.029H293.032H293.035H293.038H293.041H293.044H293.047H293.05H293.053H293.056H293.059H293.062H293.065H293.068H293.071H293.074H293.077H293.08H293.083H293.086H293.089H293.092H293.095H293.098H293.1H293.103H293.106H293.109H293.112H293.115H293.118H293.121H293.124H293.127H293.13H293.133H293.136H293.139H293.142H293.145H293.148H293.15H293.153H293.156H293.159H293.162H293.165H293.168H293.171H293.174H293.177H293.179H293.182H293.185H293.188H293.191H293.194H293.197H293.2H293.202H293.205H293.208H293.211H293.214H293.217H293.22H293.222H293.225H293.228H293.231H293.234H293.237H293.239H293.242H293.245H293.248H293.251H293.254H293.256H293.259H293.262H293.265H293.268H293.27H293.273H293.276H293.279H293.282H293.284H293.287H293.29H293.293H293.295H293.298H293.301H293.304H293.306H293.309H293.312H293.315H293.317H293.32H293.323H293.326H293.328H293.331H293.334H293.336V64.2679C293.024 64.1989 292.646 64.1243 292.191 64.1243C290.121 64.1243 288.332 65.0177 287.14 66.5125Z" fill="white" stroke="white"/>
<path d="M302.061 73.4757H301.561V73.9757C301.561 76.5733 302.431 78.649 304.208 80.1343L304.208 80.1344L304.215 80.1406C305.665 81.3039 307.692 82.1757 310.011 82.1757C312.275 82.1757 314.586 81.9479 316.499 81.2571L317.113 84.1292C314.814 85.0901 312.254 85.5757 309.189 85.5757C305.441 85.5757 302.31 84.5027 300.242 82.1691L300.232 82.1581L300.222 82.1477C298.15 80.069 297.078 76.9132 297.078 73.1507C297.078 69.3972 298.146 66.21 299.987 63.8347C302.075 61.2173 304.94 59.9006 308.64 59.9006C312.077 59.9006 314.904 61.2211 316.436 63.7823L316.459 63.8206L316.488 63.8543C318.292 65.923 318.832 68.5296 318.832 71.5007C318.832 72.0571 318.832 72.5155 318.799 72.903C318.78 73.1328 318.751 73.3209 318.711 73.4757H302.061ZM313.456 65.469L313.45 65.4588L313.443 65.4489C312.863 64.576 312.193 63.8956 311.391 63.4356C310.586 62.9741 309.675 62.7506 308.64 62.7506C306.544 62.7506 305.038 63.6659 303.863 65.1389L303.858 65.145L303.854 65.1512C302.963 66.3423 302.396 68.0817 302.116 69.7687L302.019 70.3507H302.609H314.123V70.1257H314.623V69.8507V69.3507H314.602C314.521 67.9594 314.201 66.715 313.456 65.469Z" fill="white" stroke="white"/>
<path d="M113.502 21.8283L113.226 21.9666V22.2752V35.2002V35.7002H113.726H113.727H113.729H113.731H113.732H113.734H113.736H113.737H113.739H113.741H113.742H113.744H113.746H113.748H113.75H113.751H113.753H113.755H113.757H113.759H113.76H113.762H113.764H113.766H113.768H113.77H113.772H113.774H113.776H113.778H113.78H113.782H113.783H113.786H113.788H113.79H113.792H113.794H113.796H113.798H113.8H113.802H113.804H113.806H113.808H113.81H113.813H113.815H113.817H113.819H113.821H113.824H113.826H113.828H113.83H113.832H113.835H113.837H113.839H113.842H113.844H113.846H113.849H113.851H113.853H113.856H113.858H113.86H113.863H113.865H113.868H113.87H113.872H113.875H113.877H113.88H113.882H113.885H113.887H113.89H113.892H113.895H113.897H113.9H113.903H113.905H113.908H113.91H113.913H113.916H113.918H113.921H113.924H113.926H113.929H113.932H113.934H113.937H113.94H113.942H113.945H113.948H113.951H113.953H113.956H113.959H113.962H113.965H113.967H113.97H113.973H113.976H113.979H113.982H113.984H113.987H113.99H113.993H113.996H113.999H114.002H114.005H114.008H114.011H114.014H114.017H114.02H114.023H114.026H114.029H114.032H114.035H114.038H114.041H114.044H114.047H114.05H114.053H114.056H114.059H114.062H114.066H114.069H114.072H114.075H114.078H114.081H114.085H114.088H114.091H114.094H114.097H114.101H114.104H114.107H114.11H114.114H114.117H114.12H114.123H114.127H114.13H114.133H114.137H114.14H114.143H114.147H114.15H114.153H114.157H114.16H114.164H114.167H114.17H114.174H114.177H114.181H114.184H114.187H114.191H114.194H114.198H114.201H114.205H114.208H114.212H114.215H114.219H114.222H114.226H114.229H114.233H114.237H114.24H114.244H114.247H114.251H114.255H114.258H114.262H114.265H114.269H114.273H114.276H114.28H114.284H114.287H114.291H114.295H114.298H114.302H114.306H114.309H114.313H114.317H114.321H114.324H114.328H114.332H114.336H114.339H114.343H114.347H114.351H114.355H114.358H114.362H114.366H114.37H114.374H114.377H114.381H114.385H114.389H114.393H114.397H114.401H114.405H114.408H114.412H114.416H114.42H114.424H114.428H114.432H114.436H114.44H114.444H114.448H114.452H114.456H114.46H114.464H114.468H114.472H114.476H114.48H114.484H114.488H114.492H114.496H114.5H114.504H114.508H114.512H114.516H114.52H114.524H114.528H114.532H114.537H114.541H114.545H114.549H114.553H114.557H114.561H114.565H114.57H114.574H114.578H114.582H114.586H114.59H114.595H114.599H114.603H114.607H114.611H114.615H114.62H114.624H114.628H114.632H114.637H114.641H114.645H114.649H114.654H114.658H114.662H114.666H114.671H114.675H114.679H114.684H114.688H114.692H114.696H114.701H114.705H114.709H114.714H114.718H114.722H114.727H114.731H114.735H114.74H114.744H114.748H114.753H114.757H114.762H114.766H114.77H114.775H114.779H114.784H114.788H114.792H114.797H114.801H114.806H114.81H114.815H114.819H114.823H114.828H114.832H114.837H114.841H114.846H114.85H114.855H114.859H114.864H114.868H114.873H114.877H114.882H114.886H114.891H114.895H114.9H114.904H114.909H114.913H114.918H114.922H114.927H114.931H114.936H114.94H114.945H114.949H114.954H114.959H114.963H114.968H114.972H114.977H114.981H114.986H114.991H114.995H115H115.004H115.009H115.013H115.018H115.023H115.027H115.032H115.037H115.041H115.046H115.05H115.055H115.06H115.064H115.069H115.074H115.078H115.083H115.088H115.092H115.097H115.101H115.106H115.111H115.115H115.12H115.125H115.13H115.134H115.139H115.144H115.148H115.153H115.158H115.162H115.167H115.172H115.176H115.181H115.186H115.191H115.195H115.2H115.205H115.209H115.214H115.219H115.224H115.228H115.233H115.238H115.242H115.247H115.252H115.257H115.261H115.266H115.271H115.276H115.28H115.285H115.29H115.295H115.299H115.304H115.309H115.314H115.318H115.323H115.328H115.333H115.337H115.342H115.347H115.352H115.357H115.361H115.366H115.371H115.376H115.38H115.385H115.39H115.395H115.4H115.404H115.409H115.414H115.419H115.424H115.428H115.433H115.438H115.443H115.448H115.452H115.457H115.462H115.467H115.472H115.476H115.481H115.486H115.491H115.496H115.5H115.505H115.51H115.515H115.52H115.524H115.529H115.534H115.539H115.544H115.548H115.553H115.558H115.563H115.568H115.573H115.577H115.582H115.587H115.592H115.597H115.601H115.606H115.611H115.616H115.621H115.626H115.63H115.635H115.64H115.645C117.915 35.7002 119.71 35.1304 120.933 33.9032C122.166 32.6669 122.724 30.5819 122.724 28.3252C122.724 26.3127 122.151 24.5185 120.933 23.2972C119.716 22.0756 117.926 21.5002 115.919 21.5002H115.906C115.504 21.5002 115.074 21.5002 114.674 21.5366C114.274 21.5732 113.858 21.6494 113.502 21.8283ZM124.74 28.3252C124.74 31.2631 123.943 33.5719 122.175 35.0938C120.646 36.3709 118.306 37.1752 115.097 37.1752C113.628 37.1752 112.445 37.1726 111.484 36.9967V20.7691C112.715 20.5769 114.177 20.5752 115.919 20.5752C118.87 20.5752 120.92 21.1126 122.434 22.3693C123.706 23.6539 124.74 25.7213 124.74 28.3252Z" fill="white" stroke="white"/>
<path d="M138.591 35.3967L138.572 35.4163L138.555 35.4379C137.585 36.6541 136.111 37.1747 134.285 37.1747C132.485 37.1747 131.273 36.6703 130.29 35.4379L130.272 35.4163L130.253 35.3967C129.277 34.418 128.754 32.9122 128.754 31.0747C128.754 29.2372 129.277 27.7314 130.253 26.7527L130.272 26.7331L130.29 26.7115C131.26 25.4953 132.733 24.9747 134.559 24.9747C136.359 24.9747 137.572 25.4791 138.555 26.7115L138.572 26.7331L138.591 26.7527C139.567 27.7314 140.09 29.2372 140.09 31.0747C140.09 32.9122 139.567 34.418 138.591 35.3967ZM138.349 31.0747C138.349 29.9117 138.063 28.7207 137.46 27.7989C137.147 27.1833 136.738 26.7612 136.223 26.5028C135.712 26.2467 135.143 26.1747 134.559 26.1747C133.268 26.1747 132.3 26.8328 131.675 27.773C131.061 28.6983 130.769 29.9008 130.769 31.0747C130.769 32.2377 131.055 33.4287 131.658 34.3506C131.971 34.9661 132.381 35.3883 132.896 35.6466C133.406 35.9027 133.975 35.9747 134.559 35.9747C135.195 35.9747 135.774 35.8137 136.276 35.4778C136.756 35.1568 137.14 34.6938 137.439 34.1168C137.763 33.7644 137.983 33.2894 138.124 32.7929C138.276 32.2604 138.349 31.6635 138.349 31.0747Z" fill="white" stroke="white"/>
<path d="M149.846 30.9312L151.39 25.25H152.824L154.365 30.662L154.372 30.6865L154.382 30.7102C154.91 32.0362 155.177 33.367 155.452 34.7478H156.433L156.844 32.6853L157.251 30.6426L158.787 25.25H161.025L157.491 36.9H155.767L154.229 31.7567L154.222 31.7355L154.214 31.7148C153.685 30.3888 153.419 29.0581 153.143 27.6772H152.163C151.887 29.0581 151.621 30.3888 151.092 31.7148L151.084 31.7355L151.077 31.7567L149.539 36.9H147.807L144.02 25.25H145.674L146.955 30.9041L147.365 32.9603L147.776 35.0228L148.752 35.0459C148.819 34.777 148.885 34.4958 148.954 34.2014C149.175 33.2649 149.427 32.1947 149.838 30.9577L149.842 30.9445L149.846 30.9312Z" fill="white" stroke="white"/>
<path d="M175.455 29.4245V36.8995H173.714V30.2495C173.714 29.1016 173.502 28.1497 172.997 27.4751C172.473 26.7732 171.692 26.4495 170.747 26.4495C170.277 26.4495 169.863 26.5286 169.481 26.6991C169.101 26.8685 168.777 27.1169 168.473 27.4215C167.81 28.0865 167.505 29.0507 167.505 29.9745V36.8995H165.764V28.3245V28.318V28.3116V28.3051V28.2987V28.2922V28.2858V28.2794V28.2729V28.2665V28.26V28.2536V28.2471V28.2407V28.2342V28.2278V28.2213V28.2149V28.2084V28.202V28.1956V28.1891V28.1827V28.1762V28.1698V28.1633V28.1569V28.1504V28.144V28.1375V28.1311V28.1246V28.1182V28.1117V28.1053V28.0988V28.0923V28.0859V28.0794V28.073V28.0665V28.0601V28.0536V28.0472V28.0407V28.0342V28.0278V28.0213V28.0149V28.0084V28.002V27.9955V27.989V27.9826V27.9761V27.9696V27.9632V27.9567V27.9502V27.9438V27.9373V27.9308V27.9244V27.9179V27.9114V27.905V27.8985V27.892V27.8855V27.8791V27.8726V27.8661V27.8596V27.8532V27.8467V27.8402V27.8337V27.8272V27.8208V27.8143V27.8078V27.8013V27.7948V27.7883V27.7819V27.7754V27.7689V27.7624V27.7559V27.7494V27.7429V27.7364V27.7299V27.7234V27.7169V27.7104V27.7039V27.6974V27.6909V27.6844V27.6779V27.6714V27.6649V27.6584V27.6519V27.6453V27.6388V27.6323V27.6258V27.6193V27.6128V27.6062V27.5997V27.5932V27.5867V27.5801V27.5736V27.5671V27.5606V27.554V27.5475V27.541V27.5344V27.5279V27.5213V27.5148V27.5083V27.5017V27.4952V27.4886V27.4821V27.4755V27.469V27.4624V27.4559V27.4493V27.4428V27.4362V27.4296V27.4231V27.4165V27.4099V27.4034V27.3968V27.3902V27.3837V27.3771V27.3705V27.3639V27.3573V27.3508V27.3442V27.3376V27.331V27.3244V27.3178V27.3112V27.3046V27.298V27.2914V27.2848V27.2782V27.2716V27.265V27.2584V27.2518V27.2452V27.2386V27.2319V27.2253V27.2187V27.2121V27.2055V27.1988V27.1922V27.1856V27.1789V27.1723V27.1657V27.159V27.1524V27.1457V27.1391V27.1324V27.1258V27.1191V27.1125V27.1058V27.0991V27.0925V27.0858V27.0791V27.0725V27.0658V27.0591V27.0524V27.0458V27.0391V27.0324V27.0257V27.019V27.0123V27.0056V26.9989V26.9922V26.9855V26.9788V26.9721V26.9654V26.9587V26.952V26.9453V26.9385V26.9318V26.9251V26.9184V26.9116V26.9049V26.8982V26.8914V26.8847V26.8779V26.8712V26.8644V26.8577V26.8509V26.8442V26.8374V26.8307V26.8239V26.8171V26.8103V26.8036V26.7968V26.79V26.7832V26.7764V26.7697V26.7629V26.7561V26.7493V26.7425V26.7357V26.7289V26.7221V26.7152V26.7084V26.7016V26.6948V26.688V26.6811V26.6743V26.6675V26.6606V26.6538V26.6469V26.6401V26.6332V26.6264V26.6195V26.6127V26.6058V26.5989V26.5921V26.5852V26.5783V26.5715V26.5646V26.5577V26.5508V26.5439V26.537V26.5301V26.5232V26.5163V26.5094V26.5025V26.4956V26.4887V26.4817V26.4748V26.4679V26.4609V26.454V26.4471V26.4401V26.4332V26.4262V26.4193V26.4123V26.4054V26.3984V26.3914V26.3845V26.3775V26.3705V26.3635V26.3565V26.3495V26.3426V26.3356V26.3286V26.3216V26.3145V26.3075V26.3005V26.2935V26.2865V26.2794V26.2724V26.2654V26.2583V26.2513V26.2443V26.2372V26.2302V26.2231V26.216V26.209V26.2019V26.1948V26.1878V26.1807V26.1736V26.1665V26.1594V26.1523V26.1452V26.1381V26.131V26.1239V26.1168V26.1096V26.1025V26.0954V26.0883V26.0811V26.074V26.0668V26.0597V26.0525V26.0454V26.0382V26.031V26.0239V26.0167V26.0095V26.0023V25.9952V25.988V25.9808V25.9736V25.9664V25.9591V25.9519V25.9447V25.9375V25.9303V25.923V25.9158V25.9086V25.9013V25.8941V25.8868V25.8796V25.8723V25.865V25.8578V25.8505V25.8432V25.8359V25.8286V25.8213V25.814V25.8067V25.7994V25.7921V25.7848V25.7775V25.7702V25.7628V25.7555V25.7481V25.7408V25.7335V25.7261V25.7187V25.7114V25.704V25.6966V25.6893V25.6819V25.6745V25.6671V25.6597V25.6523V25.6449V25.6375V25.6301V25.6226V25.6152V25.6078V25.6003V25.5929V25.5855V25.578V25.5706V25.5631V25.5556V25.5482V25.5407V25.5332V25.5257V25.5182V25.5107V25.5032V25.4957V25.4882V25.4807V25.4732V25.4656V25.4581V25.4506V25.443V25.4355V25.4279V25.4204V25.4128V25.4052V25.3977V25.3901V25.3825V25.3749V25.3673V25.3597V25.3521V25.3445V25.3369V25.3293V25.3216V25.314V25.3064V25.2987V25.2911V25.2834V25.2758V25.2681V25.2604V25.2527V25.2495H167.231V26.6745L168.178 26.8975C168.404 26.4456 168.868 25.968 169.42 25.4133C170.163 24.9255 170.877 24.6995 171.569 24.6995C172.588 24.6995 173.535 24.9546 174.23 25.6525L174.256 25.6776L174.284 25.699C175.171 26.3661 175.455 27.5067 175.455 29.4245Z" fill="white" stroke="white"/>
<path d="M183.132 36.9001H181.391V19.4751H183.132V36.9001Z" fill="white" stroke="white"/>
<path d="M198.08 35.3967L198.06 35.4163L198.043 35.4379C197.073 36.6541 195.6 37.1747 193.773 37.1747C191.973 37.1747 190.761 36.6703 189.778 35.4379L189.761 35.4163L189.741 35.3967C188.766 34.418 188.242 32.9122 188.242 31.0747C188.242 29.2372 188.766 27.7314 189.741 26.7527C190.753 25.7375 192.274 24.9747 194.047 24.9747C195.847 24.9747 197.06 25.4791 198.043 26.7115L198.06 26.7331L198.08 26.7527C199.055 27.7314 199.579 29.2372 199.579 31.0747C199.579 32.9122 199.055 34.418 198.08 35.3967ZM197.837 31.0747C197.837 29.9117 197.552 28.7207 196.948 27.7989C196.636 27.1833 196.226 26.7612 195.711 26.5028C195.2 26.2467 194.631 26.1747 194.047 26.1747C192.756 26.1747 191.789 26.8329 191.164 27.773C190.549 28.6983 190.258 29.9008 190.258 31.0747C190.258 32.2377 190.543 33.4287 191.147 34.3506C191.459 34.9661 191.869 35.3883 192.384 35.6466C192.895 35.9027 193.464 35.9747 194.047 35.9747C194.684 35.9747 195.262 35.8137 195.765 35.4778C196.245 35.1568 196.628 34.6938 196.927 34.1168C197.251 33.7644 197.471 33.2894 197.612 32.7929C197.764 32.2604 197.837 31.6635 197.837 31.0747Z" fill="white" stroke="white"/>
<path d="M208.304 26.1747C207.075 26.1747 206.244 26.387 205.333 26.7941L205.045 25.7822C205.97 25.1983 207.147 24.9747 208.852 24.9747C210.419 24.9747 211.498 25.3672 212.192 26.0923C212.89 26.8219 213.287 27.9791 213.287 29.6997V34.3257C213.067 35.4426 213.023 36.2122 213.015 36.8997H211.455L211.261 35.9269L211.042 34.8271L210.371 35.7253C209.662 36.6734 208.455 37.1747 207.207 37.1747C206.151 37.1747 205.285 36.9034 204.882 36.2979C204.604 35.8797 204.349 35.4937 204.159 35.1141C203.971 34.7357 203.869 34.4032 203.869 34.0997C203.869 33.3291 203.997 32.7281 204.257 32.2362C204.515 31.7479 204.922 31.3285 205.546 30.9531C206.798 30.1994 208.331 29.9247 210.771 29.9247H211.271V29.4247V29.1497C211.271 28.248 211.046 27.4799 210.508 26.9405C209.97 26.4008 209.204 26.1747 208.304 26.1747ZM211.271 31.0747V30.5747H210.771C209.233 30.5747 207.972 30.7827 207.078 31.2505C206.625 31.4877 206.253 31.7986 205.996 32.1942C205.736 32.5925 205.611 33.0501 205.611 33.5497C205.611 34.2405 205.943 34.9151 206.305 35.2777C206.666 35.6403 207.34 35.9747 208.03 35.9747C208.698 35.9747 209.338 35.653 209.85 35.3961C209.866 35.3879 209.883 35.3797 209.899 35.3716C210.598 35.0209 210.938 34.3366 211.193 33.8238C211.202 33.8066 211.21 33.7896 211.219 33.7728L211.271 33.6674V33.5497V33.5497V33.5497V33.5497V33.5496V33.5496V33.5495V33.5495V33.5494V33.5494V33.5493V33.5493V33.5492V33.5491V33.549V33.5489V33.5488V33.5487V33.5486V33.5485V33.5483V33.5482V33.5481V33.5479V33.5478V33.5476V33.5474V33.5473V33.5471V33.5469V33.5467V33.5465V33.5463V33.5461V33.5459V33.5457V33.5455V33.5453V33.545V33.5448V33.5446V33.5443V33.544V33.5438V33.5435V33.5432V33.543V33.5427V33.5424V33.5421V33.5418V33.5415V33.5412V33.5408V33.5405V33.5402V33.5399V33.5395V33.5392V33.5388V33.5385V33.5381V33.5377V33.5373V33.537V33.5366V33.5362V33.5358V33.5354V33.535V33.5346V33.5342V33.5337V33.5333V33.5329V33.5324V33.532V33.5315V33.5311V33.5306V33.5301V33.5297V33.5292V33.5287V33.5282V33.5277V33.5272V33.5267V33.5262V33.5257V33.5252V33.5247V33.5241V33.5236V33.5231V33.5225V33.522V33.5214V33.5208V33.5203V33.5197V33.5191V33.5186V33.518V33.5174V33.5168V33.5162V33.5156V33.515V33.5143V33.5137V33.5131V33.5125V33.5118V33.5112V33.5106V33.5099V33.5092V33.5086V33.5079V33.5073V33.5066V33.5059V33.5052V33.5045V33.5038V33.5031V33.5024V33.5017V33.501V33.5003V33.4996V33.4989V33.4981V33.4974V33.4966V33.4959V33.4952V33.4944V33.4936V33.4929V33.4921V33.4913V33.4906V33.4898V33.489V33.4882V33.4874V33.4866V33.4858V33.485V33.4842V33.4834V33.4825V33.4817V33.4809V33.4801V33.4792V33.4784V33.4775V33.4767V33.4758V33.475V33.4741V33.4732V33.4724V33.4715V33.4706V33.4697V33.4688V33.4679V33.467V33.4661V33.4652V33.4643V33.4634V33.4625V33.4615V33.4606V33.4597V33.4587V33.4578V33.4569V33.4559V33.455V33.454V33.453V33.4521V33.4511V33.4501V33.4492V33.4482V33.4472V33.4462V33.4452V33.4442V33.4432V33.4422V33.4412V33.4402V33.4392V33.4382V33.4372V33.4361V33.4351V33.4341V33.433V33.432V33.4309V33.4299V33.4288V33.4278V33.4267V33.4257V33.4246V33.4235V33.4224V33.4214V33.4203V33.4192V33.4181V33.417V33.4159V33.4148V33.4137V33.4126V33.4115V33.4104V33.4093V33.4081V33.407V33.4059V33.4048V33.4036V33.4025V33.4013V33.4002V33.3991V33.3979V33.3968V33.3956V33.3944V33.3933V33.3921V33.3909V33.3898V33.3886V33.3874V33.3862V33.385V33.3838V33.3826V33.3814V33.3802V33.379V33.3778V33.3766V33.3754V33.3742V33.373V33.3717V33.3705V33.3693V33.3681V33.3668V33.3656V33.3643V33.3631V33.3619V33.3606V33.3594V33.3581V33.3568V33.3556V33.3543V33.353V33.3518V33.3505V33.3492V33.3479V33.3467V33.3454V33.3441V33.3428V33.3415V33.3402V33.3389V33.3376V33.3363V33.335V33.3337V33.3324V33.3311V33.3297V33.3284V33.3271V33.3258V33.3244V33.3231V33.3218V33.3204V33.3191V33.3178V33.3164V33.3151V33.3137V33.3124V33.311V33.3097V33.3083V33.3069V33.3056V33.3042V33.3028V33.3015V33.3001V33.2987V33.2973V33.296V33.2946V33.2932V33.2918V33.2904V33.289V33.2876V33.2862V33.2848V33.2834V33.282V33.2806V33.2792V33.2778V33.2764V33.275V33.2735V33.2721V33.2707V33.2693V33.2679V33.2664V33.265V33.2636V33.2621V33.2607V33.2592V33.2578V33.2564V33.2549V33.2535V33.252V33.2506V33.2491V33.2477V33.2462V33.2448V33.2433V33.2418V33.2404V33.2389V33.2374V33.236V33.2345V33.233V33.2315V33.2301V33.2286V33.2271V33.2256V33.2241V33.2226V33.2212V33.2197V33.2182V33.2167V33.2152V33.2137V33.2122V33.2107V33.2092V33.2077V33.2062V33.2047V33.2032V33.2017V33.2001V33.1986V33.1971V33.1956V33.1941V33.1926V33.191V33.1895V33.188V33.1865V33.1849V33.1834V33.1819V33.1804V33.1788V33.1773V33.1758V33.1742V33.1727V33.1711V33.1696V33.1681V33.1665V33.165V33.1634V33.1619V33.1603V33.1588V33.1572V33.1557V33.1541V33.1526V33.151V33.1495V33.1479V33.1463V33.1448V33.1432V33.1417V33.1401V33.1385V33.137V33.1354V33.1338V33.1323V33.1307V33.1291V33.1276V33.126V33.1244V33.1228V33.1213V33.1197V33.1181V33.1165V33.115V33.1134V33.1118V33.1102V33.1086V33.107V33.1055V33.1039V33.1023V33.1007V33.0991V33.0975V33.0959V33.0943V33.0928V33.0912V33.0896V33.088V33.0864V33.0848V33.0832V33.0816V33.08V33.0784V33.0768V33.0752V33.0736V33.072V33.0704V33.0688V33.0672V33.0656V33.064V33.0624V33.0608V33.0592V33.0576V33.056V33.0544V33.0528V33.0512V33.0496V33.048V33.0464V33.0448V33.0432V33.0416V33.04V33.0383V33.0367V33.0351V33.0335V33.0319V33.0303V33.0287V33.0271V33.0255V33.0239V33.0223V33.0206V33.019V33.0174V33.0158V33.0142V33.0126V33.011V33.0094V33.0078V33.0061V33.0045V33.0029V33.0013V32.9997V31.0747Z" fill="white" stroke="white"/>
<path d="M218.125 31.3504C218.125 29.5376 218.636 28.0075 219.643 26.7339C220.646 25.738 221.882 25.2504 223.108 25.2504C224.613 25.2504 225.553 25.7397 226.271 26.6998L227.172 27.9042V26.4004V19.7504H228.913V34.1004V36.9004H227.446V35.4754L226.498 35.2524C226.13 35.9907 225.656 36.4568 225.077 36.7473C224.487 37.0432 223.75 37.1754 222.834 37.1754C222.07 37.1754 221.456 37.0483 220.913 36.8063C220.368 36.5632 219.869 36.1929 219.35 35.6724C218.405 34.7245 218.125 33.2584 218.125 31.3504ZM227.172 29.1504V29.0327L227.119 28.9274L227.112 28.9123C226.839 28.366 226.535 27.7549 225.929 27.1474C225.234 26.4496 224.495 26.45 223.711 26.4504C223.693 26.4504 223.674 26.4504 223.656 26.4504C222.365 26.4504 221.397 27.1085 220.772 28.0486C220.152 28.9818 219.866 30.1889 219.866 31.6254C219.866 33.0876 220.164 34.0112 220.772 34.9272C221.397 35.8673 222.365 36.5254 223.656 36.5254C224.594 36.5254 225.599 36.2047 226.266 35.2022L226.283 35.1763L226.297 35.1485C226.856 34.0256 227.172 33.1169 227.172 32.1754V29.9754V29.9738V29.9722V29.9706V29.969V29.9674V29.9657V29.9641V29.9625V29.9609V29.9593V29.9577V29.9561V29.9545V29.9528V29.9512V29.9496V29.948V29.9464V29.9448V29.9432V29.9416V29.94V29.9383V29.9367V29.9351V29.9335V29.9319V29.9303V29.9287V29.9271V29.9255V29.9238V29.9222V29.9206V29.919V29.9174V29.9158V29.9142V29.9126V29.911V29.9093V29.9077V29.9061V29.9045V29.9029V29.9013V29.8997V29.8981V29.8965V29.8948V29.8932V29.8916V29.89V29.8884V29.8868V29.8852V29.8836V29.8819V29.8803V29.8787V29.8771V29.8755V29.8739V29.8723V29.8707V29.8691V29.8674V29.8658V29.8642V29.8626V29.861V29.8594V29.8578V29.8562V29.8546V29.8529V29.8513V29.8497V29.8481V29.8465V29.8449V29.8433V29.8417V29.8401V29.8384V29.8368V29.8352V29.8336V29.832V29.8304V29.8288V29.8272V29.8256V29.8239V29.8223V29.8207V29.8191V29.8175V29.8159V29.8143V29.8127V29.8111V29.8094V29.8078V29.8062V29.8046V29.803V29.8014V29.7998V29.7982V29.7965V29.7949V29.7933V29.7917V29.7901V29.7885V29.7869V29.7853V29.7837V29.782V29.7804V29.7788V29.7772V29.7756V29.774V29.7724V29.7708V29.7692V29.7675V29.7659V29.7643V29.7627V29.7611V29.7595V29.7579V29.7563V29.7547V29.753V29.7514V29.7498V29.7482V29.7466V29.745V29.7434V29.7418V29.7402V29.7385V29.7369V29.7353V29.7337V29.7321V29.7305V29.7289V29.7273V29.7257V29.724V29.7224V29.7208V29.7192V29.7176V29.716V29.7144V29.7128V29.7111V29.7095V29.7079V29.7063V29.7047V29.7031V29.7015V29.6999V29.6983V29.6966V29.695V29.6934V29.6918V29.6902V29.6886V29.687V29.6854V29.6838V29.6821V29.6805V29.6789V29.6773V29.6757V29.6741V29.6725V29.6709V29.6693V29.6676V29.666V29.6644V29.6628V29.6612V29.6596V29.658V29.6564V29.6548V29.6531V29.6515V29.6499V29.6483V29.6467V29.6451V29.6435V29.6419V29.6403V29.6386V29.637V29.6354V29.6338V29.6322V29.6306V29.629V29.6274V29.6257V29.6241V29.6225V29.6209V29.6193V29.6177V29.6161V29.6145V29.6129V29.6112V29.6096V29.608V29.6064V29.6048V29.6032V29.6016V29.6V29.5984V29.5967V29.5951V29.5935V29.5919V29.5903V29.5887V29.5871V29.5855V29.5839V29.5822V29.5806V29.579V29.5774V29.5758V29.5742V29.5726V29.571V29.5694V29.5677V29.5661V29.5645V29.5629V29.5613V29.5597V29.5581V29.5565V29.5548V29.5532V29.5516V29.55V29.5484V29.5468V29.5452V29.5436V29.542V29.5403V29.5387V29.5371V29.5355V29.5339V29.5323V29.5307V29.5291V29.5275V29.5258V29.5242V29.5226V29.521V29.5194V29.5178V29.5162V29.5146V29.513V29.5113V29.5097V29.5081V29.5065V29.5049V29.5033V29.5017V29.5001V29.4985V29.4968V29.4952V29.4936V29.492V29.4904V29.4888V29.4872V29.4856V29.484V29.4823V29.4807V29.4791V29.4775V29.4759V29.4743V29.4727V29.4711V29.4694V29.4678V29.4662V29.4646V29.463V29.4614V29.4598V29.4582V29.4566V29.4549V29.4533V29.4517V29.4501V29.4485V29.4469V29.4453V29.4437V29.4421V29.4404V29.4388V29.4372V29.4356V29.434V29.4324V29.4308V29.4292V29.4276V29.4259V29.4243V29.4227V29.4211V29.4195V29.4179V29.4163V29.4147V29.4131V29.4114V29.4098V29.4082V29.4066V29.405V29.4034V29.4018V29.4002V29.3986V29.3969V29.3953V29.3937V29.3921V29.3905V29.3889V29.3873V29.3857V29.384V29.3824V29.3808V29.3792V29.3776V29.376V29.3744V29.3728V29.3712V29.3695V29.3679V29.3663V29.3647V29.3631V29.3615V29.3599V29.3583V29.3567V29.355V29.3534V29.3518V29.3502V29.3486V29.347V29.3454V29.3438V29.3422V29.3405V29.3389V29.3373V29.3357V29.3341V29.3325V29.3309V29.3293V29.3277V29.326V29.3244V29.3228V29.3212V29.3196V29.318V29.3164V29.3148V29.3132V29.3115V29.3099V29.3083V29.3067V29.3051V29.3035V29.3019V29.3003V29.2986V29.297V29.2954V29.2938V29.2922V29.2906V29.289V29.2874V29.2858V29.2841V29.2825V29.2809V29.2793V29.2777V29.2761V29.2745V29.2729V29.2713V29.2696V29.268V29.2664V29.2648V29.2632V29.2616V29.26V29.2584V29.2568V29.2551V29.2535V29.2519V29.2503V29.2487V29.2471V29.2455V29.2439V29.2423V29.2406V29.239V29.2374V29.2358V29.2342V29.2326V29.231V29.2294V29.2277V29.2261V29.2245V29.2229V29.2213V29.2197V29.2181V29.2165V29.2149V29.2132V29.2116V29.21V29.2084V29.2068V29.2052V29.2036V29.202V29.2004V29.1987V29.1971V29.1955V29.1939V29.1923V29.1907V29.1891V29.1875V29.1859V29.1842V29.1826V29.181V29.1794V29.1778V29.1762V29.1746V29.173V29.1714V29.1697V29.1681V29.1665V29.1649V29.1633V29.1617V29.1601V29.1585V29.1569V29.1552V29.1536V29.152V29.1504Z" fill="white" stroke="white"/>
<path d="M251.263 35.3967L251.244 35.4163L251.226 35.4379C250.257 36.6541 248.783 37.1747 246.957 37.1747C245.157 37.1747 243.944 36.6703 242.962 35.4379L242.944 35.4163L242.925 35.3967C241.949 34.418 241.426 32.9122 241.426 31.0747C241.426 29.2372 241.949 27.7314 242.925 26.7527L242.944 26.7331L242.962 26.7115C243.931 25.4953 245.405 24.9747 247.231 24.9747C249.031 24.9747 250.244 25.4791 251.226 26.7115L251.244 26.7331L251.263 26.7527C252.239 27.7314 252.762 29.2372 252.762 31.0747C252.762 32.9122 252.239 34.418 251.263 35.3967ZM250.747 31.0747C250.747 29.9117 250.461 28.7207 249.858 27.7989C249.545 27.1833 249.135 26.7612 248.62 26.5028C248.11 26.2467 247.541 26.1747 246.957 26.1747C245.666 26.1747 244.698 26.8329 244.073 27.773C243.458 28.6983 243.167 29.9008 243.167 31.0747C243.167 32.2377 243.453 33.4287 244.056 34.3506C244.369 34.9661 244.778 35.3883 245.294 35.6466C245.804 35.9027 246.373 35.9747 246.957 35.9747C247.593 35.9747 248.172 35.8137 248.674 35.4778C249.154 35.1568 249.538 34.6938 249.837 34.1168C250.161 33.7644 250.38 33.2894 250.522 32.7929C250.674 32.2604 250.747 31.6635 250.747 31.0747Z" fill="white" stroke="white"/>
<path d="M267.84 29.4245V36.8995H266.099V30.2495C266.099 29.1016 265.887 28.1497 265.382 27.4751C264.857 26.7732 264.076 26.4495 263.131 26.4495C262.662 26.4495 262.248 26.5286 261.865 26.6991C261.485 26.8685 261.162 27.1169 260.858 27.4215C260.195 28.0865 259.89 29.0507 259.89 29.9745V36.8995H258.148V28.3245V28.318V28.3116V28.3051V28.2987V28.2922V28.2858V28.2794V28.2729V28.2665V28.26V28.2536V28.2471V28.2407V28.2342V28.2278V28.2213V28.2149V28.2084V28.202V28.1956V28.1891V28.1827V28.1762V28.1698V28.1633V28.1569V28.1504V28.144V28.1375V28.1311V28.1246V28.1182V28.1117V28.1053V28.0988V28.0923V28.0859V28.0794V28.073V28.0665V28.0601V28.0536V28.0472V28.0407V28.0342V28.0278V28.0213V28.0149V28.0084V28.002V27.9955V27.989V27.9826V27.9761V27.9696V27.9632V27.9567V27.9502V27.9438V27.9373V27.9308V27.9244V27.9179V27.9114V27.905V27.8985V27.892V27.8855V27.8791V27.8726V27.8661V27.8596V27.8532V27.8467V27.8402V27.8337V27.8272V27.8208V27.8143V27.8078V27.8013V27.7948V27.7883V27.7819V27.7754V27.7689V27.7624V27.7559V27.7494V27.7429V27.7364V27.7299V27.7234V27.7169V27.7104V27.7039V27.6974V27.6909V27.6844V27.6779V27.6714V27.6649V27.6584V27.6519V27.6453V27.6388V27.6323V27.6258V27.6193V27.6128V27.6062V27.5997V27.5932V27.5867V27.5801V27.5736V27.5671V27.5606V27.554V27.5475V27.541V27.5344V27.5279V27.5213V27.5148V27.5083V27.5017V27.4952V27.4886V27.4821V27.4755V27.469V27.4624V27.4559V27.4493V27.4428V27.4362V27.4296V27.4231V27.4165V27.4099V27.4034V27.3968V27.3902V27.3837V27.3771V27.3705V27.3639V27.3573V27.3508V27.3442V27.3376V27.331V27.3244V27.3178V27.3112V27.3046V27.298V27.2914V27.2848V27.2782V27.2716V27.265V27.2584V27.2518V27.2452V27.2386V27.2319V27.2253V27.2187V27.2121V27.2055V27.1988V27.1922V27.1856V27.1789V27.1723V27.1657V27.159V27.1524V27.1457V27.1391V27.1324V27.1258V27.1191V27.1125V27.1058V27.0991V27.0925V27.0858V27.0791V27.0725V27.0658V27.0591V27.0524V27.0458V27.0391V27.0324V27.0257V27.019V27.0123V27.0056V26.9989V26.9922V26.9855V26.9788V26.9721V26.9654V26.9587V26.952V26.9453V26.9385V26.9318V26.9251V26.9184V26.9116V26.9049V26.8982V26.8914V26.8847V26.8779V26.8712V26.8644V26.8577V26.8509V26.8442V26.8374V26.8307V26.8239V26.8171V26.8103V26.8036V26.7968V26.79V26.7832V26.7764V26.7697V26.7629V26.7561V26.7493V26.7425V26.7357V26.7289V26.7221V26.7152V26.7084V26.7016V26.6948V26.688V26.6811V26.6743V26.6675V26.6606V26.6538V26.6469V26.6401V26.6332V26.6264V26.6195V26.6127V26.6058V26.5989V26.5921V26.5852V26.5783V26.5715V26.5646V26.5577V26.5508V26.5439V26.537V26.5301V26.5232V26.5163V26.5094V26.5025V26.4956V26.4887V26.4817V26.4748V26.4679V26.4609V26.454V26.4471V26.4401V26.4332V26.4262V26.4193V26.4123V26.4054V26.3984V26.3914V26.3845V26.3775V26.3705V26.3635V26.3565V26.3495V26.3426V26.3356V26.3286V26.3216V26.3145V26.3075V26.3005V26.2935V26.2865V26.2794V26.2724V26.2654V26.2583V26.2513V26.2443V26.2372V26.2302V26.2231V26.216V26.209V26.2019V26.1948V26.1878V26.1807V26.1736V26.1665V26.1594V26.1523V26.1452V26.1381V26.131V26.1239V26.1168V26.1096V26.1025V26.0954V26.0883V26.0811V26.074V26.0668V26.0597V26.0525V26.0454V26.0382V26.031V26.0239V26.0167V26.0095V26.0023V25.9952V25.988V25.9808V25.9736V25.9664V25.9591V25.9519V25.9447V25.9375V25.9303V25.923V25.9158V25.9086V25.9013V25.8941V25.8868V25.8796V25.8723V25.865V25.8578V25.8505V25.8432V25.8359V25.8286V25.8213V25.814V25.8067V25.7994V25.7921V25.7848V25.7775V25.7702V25.7628V25.7555V25.7481V25.7408V25.7335V25.7261V25.7187V25.7114V25.704V25.6966V25.6893V25.6819V25.6745V25.6671V25.6597V25.6523V25.6449V25.6375V25.6301V25.6226V25.6152V25.6078V25.6003V25.5929V25.5855V25.578V25.5706V25.5631V25.5556V25.5482V25.5407V25.5332V25.5257V25.5182V25.5107V25.5032V25.4957V25.4882V25.4807V25.4732V25.4656V25.4581V25.4506V25.443V25.4355V25.4279V25.4204V25.4128V25.4052V25.3977V25.3901V25.3825V25.3749V25.3673V25.3597V25.3521V25.3445V25.3369V25.3293V25.3216V25.314V25.3064V25.2987V25.2911V25.2834V25.2758V25.2681V25.2604V25.2527V25.2495H259.616V26.6745L260.563 26.8975C260.789 26.4456 261.252 25.968 261.805 25.4133C262.547 24.9255 263.261 24.6995 263.954 24.6995C264.973 24.6995 265.92 24.9546 266.615 25.6525L266.64 25.6776L266.669 25.699C267.555 26.3661 267.84 27.5067 267.84 29.4245Z" fill="white" stroke="white"/>
<path d="M283.968 26.4499H283.468V26.9499V32.9999C283.468 33.858 283.606 34.551 283.989 35.0304C284.395 35.5397 284.985 35.6999 285.613 35.6999H285.616H285.62H285.623H285.626H285.629H285.632H285.636H285.639H285.642H285.645H285.648H285.651H285.654H285.658H285.661H285.664H285.667H285.67H285.673H285.676H285.679H285.682H285.686H285.689H285.692H285.695H285.698H285.701H285.704H285.707H285.71H285.713H285.716H285.719H285.722H285.725H285.728H285.731H285.734H285.737H285.74H285.743H285.746H285.749H285.752H285.755H285.758H285.761H285.764H285.767H285.769H285.772H285.775H285.778H285.781H285.784H285.787H285.79H285.793H285.796H285.798H285.801H285.804H285.807H285.81H285.813H285.816H285.818H285.821H285.824H285.827H285.83H285.833H285.835H285.838H285.841H285.844H285.847H285.849H285.852H285.855H285.858H285.861H285.863H285.866H285.869H285.872H285.874H285.877H285.88H285.883H285.885H285.888H285.891H285.894H285.896H285.899H285.902H285.904H285.907H285.91H285.913H285.915H285.918H285.921H285.923H285.926H285.929H285.931H285.934H285.937H285.939H285.942H285.945H285.947H285.95H285.953H285.955H285.958H285.961H285.963H285.966H285.969H285.971H285.974H285.976H285.979H285.982H285.984H285.987H285.989H285.992H285.995H285.997H286H286.002H286.005H286.008H286.01H286.013H286.015H286.018H286.02H286.023H286.026H286.028H286.031H286.033H286.036H286.038H286.041H286.043H286.046H286.048H286.051H286.054H286.056H286.059H286.061H286.064H286.066H286.069H286.071H286.074H286.076H286.079H286.081H286.084H286.086H286.089H286.091H286.094H286.096H286.099H286.101H286.104H286.106H286.109H286.111H286.114H286.116H286.119H286.121H286.124H286.126H286.129H286.131H286.133H286.136H286.138H286.141H286.143H286.146H286.148H286.151H286.153H286.156H286.158H286.16H286.163H286.165H286.168H286.17H286.173H286.175H286.178H286.18H286.182H286.185H286.187H286.19H286.192H286.195H286.197H286.2H286.202H286.204H286.207H286.209H286.212H286.214H286.216H286.219H286.221H286.224H286.226H286.229H286.231H286.233H286.236H286.238H286.241H286.243H286.246H286.248H286.25H286.253H286.255H286.258H286.26H286.262H286.265H286.267H286.27H286.272H286.274H286.277H286.279H286.282H286.284H286.287H286.289H286.291H286.294H286.296H286.299H286.301H286.303H286.306H286.308H286.311H286.313H286.315H286.318H286.32H286.323H286.325H286.327H286.33H286.332H286.335H286.337H286.34H286.342H286.344H286.347H286.349H286.352H286.354H286.356H286.359H286.361H286.364H286.366H286.369H286.371H286.373H286.376H286.378H286.381H286.383H286.386H286.388H286.39H286.393H286.395H286.398H286.4H286.403H286.405H286.407H286.41H286.412H286.415H286.417H286.42H286.422H286.424H286.427H286.429H286.432H286.434H286.437H286.439H286.442H286.444H286.446H286.449H286.451H286.454H286.456H286.459H286.461H286.464H286.466H286.469H286.471H286.474H286.476H286.479H286.481H286.483H286.484V37.054C286.332 37.0944 286.153 37.1235 285.945 37.1425C285.595 37.1745 285.207 37.1749 284.791 37.1749C283.782 37.1749 283.159 36.9286 282.74 36.2981L282.713 36.2569L282.678 36.2218C282.504 36.0474 282.324 35.6782 282.193 35.1201C282.067 34.5805 282.001 33.9324 282.001 33.2749V26.9499V26.4499H281.501H280.082V25.2499H281.501H282.001V24.7499V22.9215L283.743 22.3975V24.7499V25.2499H284.243H286.758V26.4499H283.968Z" fill="white" stroke="white"/>
<path d="M301.285 29.7001V36.9001H299.544V30.2501C299.544 29.1023 299.332 28.1503 298.827 27.4757C298.303 26.7738 297.522 26.4501 296.577 26.4501C295.825 26.4501 295.166 26.6015 294.612 26.9863C294.06 27.3697 293.667 27.9459 293.371 28.6899L293.335 28.7791V28.8751V28.8767V28.8783V28.8799V28.8815V28.8832V28.8848V28.8864V28.888V28.8896V28.8912V28.8928V28.8944V28.896V28.8977V28.8993V28.9009V28.9025V28.9041V28.9057V28.9073V28.909V28.9106V28.9122V28.9138V28.9154V28.917V28.9186V28.9203V28.9219V28.9235V28.9251V28.9267V28.9283V28.93V28.9316V28.9332V28.9348V28.9364V28.9381V28.9397V28.9413V28.9429V28.9445V28.9462V28.9478V28.9494V28.951V28.9527V28.9543V28.9559V28.9575V28.9592V28.9608V28.9624V28.9641V28.9657V28.9673V28.969V28.9706V28.9722V28.9739V28.9755V28.9771V28.9788V28.9804V28.982V28.9837V28.9853V28.987V28.9886V28.9902V28.9919V28.9935V28.9952V28.9968V28.9985V29.0001V29.0018V29.0034V29.0051V29.0067V29.0084V29.01V29.0117V29.0133V29.015V29.0166V29.0183V29.0199V29.0216V29.0233V29.0249V29.0266V29.0283V29.0299V29.0316V29.0333V29.0349V29.0366V29.0383V29.04V29.0416V29.0433V29.045V29.0467V29.0483V29.05V29.0517V29.0534V29.0551V29.0568V29.0584V29.0601V29.0618V29.0635V29.0652V29.0669V29.0686V29.0703V29.072V29.0737V29.0754V29.0771V29.0788V29.0805V29.0822V29.0839V29.0856V29.0874V29.0891V29.0908V29.0925V29.0942V29.0959V29.0977V29.0994V29.1011V29.1028V29.1046V29.1063V29.108V29.1098V29.1115V29.1132V29.115V29.1167V29.1185V29.1202V29.122V29.1237V29.1255V29.1272V29.129V29.1307V29.1325V29.1342V29.136V29.1378V29.1395V29.1413V29.1431V29.1448V29.1466V29.1484V29.1502V29.1519V29.1537V29.1555V29.1573V29.1591V29.1609V29.1627V29.1645V29.1663V29.1681V29.1699V29.1717V29.1735V29.1753V29.1771V29.1789V29.1807V29.1825V29.1843V29.1862V29.188V29.1898V29.1916V29.1935V29.1953V29.1971V29.199V29.2008V29.2027V29.2045V29.2063V29.2082V29.21V29.2119V29.2138V29.2156V29.2175V29.2193V29.2212V29.2231V29.2249V29.2268V29.2287V29.2306V29.2324V29.2343V29.2362V29.2381V29.24V29.2419V29.2438V29.2457V29.2476V29.2495V29.2514V29.2533V29.2552V29.2571V29.2591V29.261V29.2629V29.2648V29.2668V29.2687V29.2706V29.2726V29.2745V29.2765V29.2784V29.2803V29.2823V29.2843V29.2862V29.2882V29.2901V29.2921V29.2941V29.296V29.298V29.3V29.302V29.304V29.306V29.3079V29.3099V29.3119V29.3139V29.3159V29.3179V29.32V29.322V29.324V29.326V29.328V29.3301V29.3321V29.3341V29.3361V29.3382V29.3402V29.3423V29.3443V29.3464V29.3484V29.3505V29.3525V29.3546V29.3567V29.3587V29.3608V29.3629V29.365V29.3671V29.3692V29.3712V29.3733V29.3754V29.3775V29.3796V29.3818V29.3839V29.386V29.3881V29.3902V29.3924V29.3945V29.3966V29.3988V29.4009V29.403V29.4052V29.4073V29.4095V29.4117V29.4138V29.416V29.4182V29.4203V29.4225V29.4247V29.4269V29.4291V29.4312V29.4334V29.4356V29.4378V29.4401V29.4423V29.4445V29.4467V29.4489V29.4512V29.4534V29.4556V29.4579V29.4601V29.4623V29.4646V29.4669V29.4691V29.4714V29.4736V29.4759V29.4782V29.4805V29.4827V29.485V29.4873V29.4896V29.4919V29.4942V29.4965V29.4988V29.5012V29.5035V29.5058V29.5081V29.5105V29.5128V29.5151V29.5175V29.5198V29.5222V29.5245V29.5269V29.5293V29.5316V29.534V29.5364V29.5388V29.5412V29.5436V29.546V29.5484V29.5508V29.5532V29.5556V29.558V29.5604V29.5629V29.5653V29.5677V29.5702V29.5726V29.5751V29.5775V29.58V29.5824V29.5849V29.5874V29.5899V29.5924V29.5948V29.5973V29.5998V29.6023V29.6048V29.6073V29.6099V29.6124V29.6149V29.6174V29.62V29.6225V29.6251V29.6276V29.6302V29.6327V29.6353V29.6378V29.6404V29.643V29.6456V29.6482V29.6508V29.6534V29.656V29.6586V29.6612V29.6638V29.6664V29.669V29.6717V29.6743V29.677V29.6796V29.6823V29.6849V29.6876V29.6902V29.6929V29.6956V29.6983V29.701V29.7037V29.7064V29.7091V29.7118V29.7145V29.7172V29.7199V29.7226V29.7254V29.7281V29.7309V29.7336V29.7364V29.7391V29.7419V29.7447V29.7475V29.7502V29.753V29.7558V29.7586V29.7614V29.7642V29.767V29.7699V29.7727V29.7755V29.7784V29.7812V29.784V29.7869V29.7898V29.7926V29.7955V29.7984V29.8012V29.8041V29.807V29.8099V29.8128V29.8157V29.8187V29.8216V29.8245V29.8274V29.8304V29.8333V29.8363V29.8392V29.8422V29.8451V29.8481V29.8511V29.8541V29.8571V29.8601V29.8631V29.8661V29.8691V29.8721V29.8751V29.8782V29.8812V29.8842V29.8873V29.8903V29.8934V29.8965V29.8995V29.9026V29.9057V29.9088V29.9119V29.915V29.9181V29.9212V29.9243V29.9275V29.9306V29.9337V29.9369V29.94V29.9432V29.9463V29.9495V29.9527V29.9559V29.9591V29.9623V29.9655V29.9687V29.9719V29.9751V36.9001H291.594V19.4751H293.335V26.6751V28.4851L294.264 26.9318C295 25.7009 296.212 24.9751 297.673 24.9751C298.729 24.9751 299.596 25.2464 299.998 25.8518L300.026 25.8931L300.06 25.9281C300.756 26.6262 301.285 28.1268 301.285 29.7001Z" fill="white" stroke="white"/>
<path d="M308.64 31.4H308.14V31.9C308.14 33.4343 308.762 34.3803 309.382 35.003L309.417 35.0381L309.458 35.0656C310.36 35.6688 311.279 35.975 312.478 35.975C313.655 35.975 314.639 35.7817 315.427 35.5547L315.717 36.5743C314.771 36.9684 313.605 37.175 312.204 37.175C310.373 37.175 308.873 36.6504 307.897 35.672C306.922 34.6933 306.398 33.1875 306.398 31.35C306.398 29.5125 306.922 28.0067 307.897 27.028L307.917 27.0084L307.934 26.9868C308.917 25.7543 310.13 25.25 311.93 25.25C313.749 25.25 314.914 25.763 315.613 26.9317L315.619 26.9419L315.625 26.9518C316.091 27.6519 316.364 28.9048 316.364 30.525V30.5282V30.5314V30.5346V30.5378V30.541V30.5442V30.5474V30.5506V30.5537V30.5569V30.5601V30.5632V30.5664V30.5695V30.5726V30.5758V30.5789V30.582V30.5851V30.5882V30.5913V30.5944V30.5975V30.6006V30.6037V30.6067V30.6098V30.6128V30.6159V30.619V30.622V30.625V30.6281V30.6311V30.6341V30.6371V30.6401V30.6431V30.6461V30.6491V30.6521V30.6551V30.6581V30.661V30.664V30.667V30.6699V30.6729V30.6758V30.6788V30.6817V30.6846V30.6876V30.6905V30.6934V30.6963V30.6992V30.7021V30.705V30.7079V30.7108V30.7137V30.7166V30.7194V30.7223V30.7252V30.728V30.7309V30.7337V30.7366V30.7394V30.7422V30.7451V30.7479V30.7507V30.7535V30.7563V30.7592V30.762V30.7648V30.7676V30.7703V30.7731V30.7759V30.7787V30.7815V30.7842V30.787V30.7898V30.7925V30.7953V30.798V30.8008V30.8035V30.8063V30.809V30.8117V30.8144V30.8172V30.8199V30.8226V30.8253V30.828V30.8307V30.8334V30.8361V30.8388V30.8415V30.8442V30.8469V30.8495V30.8522V30.8549V30.8575V30.8602V30.8629V30.8655V30.8682V30.8708V30.8735V30.8761V30.8788V30.8814V30.884V30.8867V30.8893V30.8919V30.8945V30.8971V30.8998V30.9024V30.905V30.9076V30.9102V30.9128V30.9154V30.918V30.9206V30.9231V30.9257V30.9283V30.9309V30.9335V30.936V30.9386V30.9412V30.9437V30.9463V30.9489V30.9514V30.954V30.9565V30.9591V30.9616V30.9642V30.9667V30.9692V30.9718V30.9743V30.9768V30.9794V30.9819V30.9844V30.9869V30.9895V30.992V30.9945V30.997V30.9995V31.002V31.0045V31.007V31.0095V31.012V31.0145V31.017V31.0195V31.022V31.0245V31.027V31.0295V31.032V31.0345V31.0369V31.0394V31.0419V31.0444V31.0468V31.0493V31.0518V31.0543V31.0567V31.0592V31.0617V31.0641V31.0666V31.069V31.0715V31.074V31.0764V31.0789V31.0813V31.0838V31.0862V31.0887V31.0911V31.0936V31.096V31.0985V31.1009V31.1034V31.1058V31.1082V31.1107V31.1131V31.1155V31.118V31.1204V31.1229V31.1253V31.1277V31.1302V31.1326V31.135V31.1374V31.1399V31.1423V31.1447V31.1472V31.1496V31.152V31.1544V31.1569V31.1593V31.1617V31.1641V31.1665V31.169V31.1714V31.1738V31.1762V31.1786V31.1811V31.1835V31.1859V31.1883V31.1907V31.1932V31.1956V31.198V31.2004V31.2028V31.2052V31.2077V31.2101V31.2125V31.2149V31.2173V31.2197V31.2222V31.2246V31.227V31.2294V31.2318V31.2342V31.2367V31.2391V31.2415V31.2439V31.2463V31.2488V31.2512V31.2536V31.256V31.2584V31.2609V31.2633V31.2657V31.2681V31.2706V31.273V31.2754V31.2778V31.2803V31.2827V31.2851V31.2875V31.29V31.2924V31.2948V31.2973V31.2997V31.3021V31.3046V31.307V31.3094V31.3119V31.3143V31.3167V31.3192V31.3216V31.3241V31.3265V31.329V31.3314V31.3339V31.3363V31.3388V31.3412V31.3437V31.3461V31.3486V31.351V31.3535V31.3559V31.3584V31.3609V31.3633V31.3658V31.3683V31.3707V31.3732V31.3757V31.3781V31.3806V31.3831V31.3856V31.388V31.3905V31.393V31.3955V31.398V31.4H308.64ZM314.397 30.2H314.897V29.7C314.897 28.7758 314.593 27.8737 314.296 27.2769L314.282 27.2491L314.265 27.2232C313.962 26.768 313.629 26.418 313.182 26.1937C312.74 25.9723 312.241 25.9 311.655 25.9C310.73 25.9 309.74 26.212 309.073 27.1826C308.435 27.8461 308.14 28.7925 308.14 29.7V30.2H308.64H314.397Z" fill="white" stroke="white"/>
</svg>
