<svg width="120" height="120" viewBox="0 0 120 120" fill="none" xmlns="http://www.w3.org/2000/svg">
<g filter="url(#filter0_d)">
<circle cx="58" cy="58" r="50" fill="white"/>
</g>
<path fill-rule="evenodd" clip-rule="evenodd" d="M43.914 41.9728C44.1002 41.7163 44.307 41.4023 44.5707 40.9789C44.667 40.8242 44.9298 40.3946 45.1254 40.0748L45.3456 39.7151C47.5241 36.1838 49.1076 34.563 51.9631 34.563H65.1023V39.7713H51.9631C51.7352 39.7713 51.0184 40.505 49.8298 42.4317L49.6385 42.7441C49.4413 43.0666 49.1538 43.5367 49.0432 43.7143C48.7201 44.2331 48.4516 44.6408 48.1806 45.0142C47.0027 46.637 45.8253 47.5838 44.0795 47.5838H36.196C34.7447 47.5838 33.5682 48.7497 33.5682 50.188V73.6255C33.5682 75.0637 34.7447 76.2297 36.196 76.2297H78.2415C79.6928 76.2297 80.8693 75.0637 80.8693 73.6255V58.0005H86.125V73.6255C86.125 77.9402 82.5954 81.438 78.2415 81.438H36.196C31.8421 81.438 28.3125 77.9402 28.3125 73.6255V50.188C28.3125 45.8733 31.8421 42.3755 36.196 42.3755H43.5965C43.684 42.2764 43.7913 42.142 43.914 41.9728ZM70.358 47.5838V42.3755H75.6136V37.1672H80.8693V42.3755H86.125V47.5838H80.8693V52.7922H75.6136V47.5838H70.358ZM57.2188 73.6255C49.9622 73.6255 44.0795 67.7959 44.0795 60.6047C44.0795 53.4134 49.9622 47.5838 57.2188 47.5838C64.4753 47.5838 70.358 53.4134 70.358 60.6047C70.358 67.7959 64.4753 73.6255 57.2188 73.6255ZM57.2188 68.4172C61.5727 68.4172 65.1023 64.9194 65.1023 60.6047C65.1023 56.2899 61.5727 52.7922 57.2188 52.7922C52.8648 52.7922 49.3352 56.2899 49.3352 60.6047C49.3352 64.9194 52.8648 68.4172 57.2188 68.4172Z" fill="black"/>
<defs>
<filter id="filter0_d" x="0" y="0" width="120" height="120" filterUnits="userSpaceOnUse" color-interpolation-filters="sRGB">
<feFlood flood-opacity="0" result="BackgroundImageFix"/>
<feColorMatrix in="SourceAlpha" type="matrix" values="0 0 0 0 0 0 0 0 0 0 0 0 0 0 0 0 0 0 127 0"/>
<feOffset dx="2" dy="2"/>
<feGaussianBlur stdDeviation="5"/>
<feColorMatrix type="matrix" values="0 0 0 0 0.841667 0 0 0 0 0.739965 0 0 0 0 0.739965 0 0 0 0.49 0"/>
<feBlend mode="normal" in2="BackgroundImageFix" result="effect1_dropShadow"/>
<feBlend mode="normal" in="SourceGraphic" in2="effect1_dropShadow" result="shape"/>
</filter>
</defs>
</svg>
