<svg width="1440" height="884" viewBox="0 0 1440 884" fill="none" xmlns="http://www.w3.org/2000/svg">
<g clip-path="url(#clip0)">
<rect width="1440" height="884" fill="black"/>
<path d="M63.2133 35.2153C69.8316 40.604 77.0628 48.5073 79.3914 52.8781L81.7814 57.2489L77.2466 56.8897C49.6702 54.4947 15.0466 55.0934 -8.17882 58.3266C-16.084 59.4044 -30.485 62.2184 -31.0978 62.8172C-31.4655 63.1764 -31.8332 62.9968 -19.9447 68.0861C-13.9392 70.6607 -9.15932 72.876 -9.2206 72.9957C-9.34316 73.0556 -13.02 73.7142 -17.3709 74.4327C-46.2342 79.1029 -69.5209 87.9642 -92.7463 103.232C-127.431 126.044 -154.456 162.986 -160.094 195.318C-161.442 203.162 -161.258 213.34 -159.726 213.34C-159.42 213.34 -156.049 211.604 -152.189 209.448C-148.328 207.293 -145.08 205.557 -145.019 205.557C-144.896 205.557 -144.774 209.269 -144.774 213.819C-144.651 225.674 -143.18 234.416 -133.13 283.093C-121.671 338.716 -119.036 358.115 -120.506 376.916C-122.651 404.158 -130.311 426.012 -145.019 446.549L-148.451 451.339L-145.08 448.645C-139.32 444.034 -127.431 432.419 -122.345 426.491C-107.515 409.248 -97.036 388.411 -92.7463 367.635C-90.1725 355.181 -89.6823 349.733 -89.7435 333.986C-89.8048 309.857 -93.114 287.284 -101.938 251.36C-104.451 241.182 -105.125 233.278 -104.145 224.537C-100.774 194.36 -80.4902 174.183 -35.4488 156.28C-30.914 154.484 -26.6243 152.868 -26.0115 152.628C-25.3987 152.389 -24.9698 152.149 -25.0923 152.029C-26.1341 151.011 -51.1366 148.676 -61.1254 148.676L-67.0084 148.616L-62.351 144.306C-46.9696 129.936 -20.8639 118.859 8.9798 114.009C13.0243 113.351 18.846 112.632 21.8488 112.393L27.364 112.034L20.9296 117.841C-8.73035 144.785 -30.4237 172.746 -47.6436 206.155C-53.5879 217.771 -60.3288 232.38 -59.8385 232.799C-59.716 232.919 -54.6297 227.89 -48.6241 221.543C-17.4935 189.091 -10.9365 182.745 1.13586 173.704C11.431 165.92 24.1162 158.556 35.4531 153.826C41.7037 151.251 51.5699 147.898 51.9376 148.257C52.1215 148.437 50.712 150.832 48.8736 153.586C39.9266 166.998 32.8793 182.745 26.4448 203.76L24.1774 211.185L22.5841 208.85C21.7262 207.532 17.7429 201.425 13.7597 195.258L6.406 184.122L-2.05074 196.156C-10.8752 208.73 -26.7469 230.584 -38.0838 245.792C-41.6994 250.701 -44.5183 254.653 -44.3958 254.653C-44.2732 254.653 -39.7997 252.258 -34.4683 249.384C-22.9475 243.097 -15.0423 238.308 -7.19833 232.799C-4.07301 230.584 -1.19281 228.668 -0.825129 228.548C0.216645 228.129 4.26118 235.254 5.91576 240.403C7.26394 244.654 8.42827 250.522 9.71517 259.683L10.2054 263.215L17.8655 255.192C31.4698 241.002 38.1495 232.919 43.5422 224.177C45.0129 221.842 46.4224 220.106 46.7288 220.345C46.9739 220.585 48.6897 224.716 50.5895 229.506C52.4892 234.296 55.1855 241.002 56.595 244.475C60.1493 253.396 65.1743 262.676 68.9124 267.167C72.0377 270.939 77.982 276.208 79.1463 276.208C79.514 276.208 79.7591 273.753 79.7591 270.58C79.7591 259.982 81.7814 251.18 85.0293 247.588L86.4387 245.971L88.032 247.768C91.3412 251.54 101.759 265.311 104.394 269.322C114.199 284.291 120.94 301.115 123.881 317.88C125.168 325.005 126.578 343.506 126.21 348.356L126.026 351.349L121.859 343.207C119.592 338.716 115.547 331.831 112.973 327.939C103.781 314.228 95.447 305.726 75.592 289.859C69.2801 284.83 61.8651 278.722 59.1075 276.387C56.3498 273.992 54.0212 272.017 53.8986 272.017C53.3471 272.017 47.219 279.86 44.4614 284.051C40.4781 289.979 35.6982 300.217 32.3278 309.617C29.6314 317.281 23.9323 338.477 23.0744 344.045L22.6454 346.679L28.0994 347.398C31.0409 347.817 34.4726 348.236 35.6982 348.476L37.9043 348.775L38.3333 342.309C39.1912 329.376 41.4586 318.718 44.8291 311.593C46.3611 308.42 51.6925 298.96 52.6117 297.822C52.9794 297.343 56.9014 301.355 63.8874 309.198C89.3802 337.818 93.7311 351.17 81.2911 363.264C76.9402 367.575 73.0795 370.389 57.1465 380.987C49.5477 386.016 41.765 391.285 39.7428 392.722C37.7205 394.159 35.8821 395.357 35.6369 395.357C34.9016 395.357 28.1607 386.136 22.5841 377.455C13.5146 363.264 4.93527 344.883 -9.15932 309.617C-14.6133 295.906 -15.6551 293.751 -16.513 294.23C-18.8417 295.427 -35.0811 311.952 -40.4738 318.539C-47.2147 326.801 -49.5433 330.034 -53.833 336.74C-69.4596 361.348 -79.0194 389.848 -83.7993 425.952C-86.5569 446.908 -87.8438 472.355 -88.4566 520.493C-88.7631 545.76 -89.0082 555.998 -89.6823 568.991L-89.9887 574.679L-85.5152 565.698C-73.5654 541.868 -56.6519 516.901 -36.0616 492.652C-19.6996 473.432 5.48679 448.824 21.7262 436.071C23.9936 434.335 25.832 432.658 25.832 432.419C25.832 432.179 24.4226 430.263 22.7067 428.168L19.5814 424.396L22.5229 427.389C24.1162 429.006 28.0994 433.077 31.3473 436.37C38.9461 444.154 44.4001 449.124 51.4474 454.572C54.5727 457.027 56.9014 459.182 56.6562 459.422C56.4111 459.661 53.5309 460.859 50.3443 462.116C31.1022 469.72 -0.641286 486.066 -17.0645 496.723C-23.4377 500.914 -28.7079 504.866 -28.7079 505.585C-28.7079 505.884 -25.46 504.507 -21.4768 502.591C-1.5605 492.712 18.6622 487.263 52.1828 482.833C57.3916 482.114 66.7063 480.917 72.8957 480.078L84.11 478.582L91.2799 483.312C122.411 503.729 139.692 524.804 136.75 538.695C133.564 553.783 110.399 554.681 91.0961 540.551C80.8622 533.067 72.0377 522.289 66.2161 510.015L64.2551 505.944L56.2273 506.303C47.3416 506.662 41.8263 507.62 33.1857 510.375C15.8432 515.943 0.461768 525.942 -14.0618 541.21C-32.8137 560.848 -45.7439 589.169 -48.8693 617.609C-49.7272 625.093 -49.7272 638.624 -48.8693 646.109C-45.8052 673.89 -34.5296 700.833 -15.41 725.98C-13.2038 728.914 -11.3041 731.249 -11.1816 731.249C-11.059 731.249 -5.23735 719.933 1.74866 706.102C8.67339 692.271 14.5563 680.955 14.8015 680.955C14.9853 680.955 17.7429 686.823 20.9296 694.008C35.8821 727.956 47.0352 749.271 59.9041 768.072C70.7508 784.058 79.514 793.039 88.2771 797.29C93.3634 799.745 99.369 799.985 103.352 797.889C112.483 793.159 119.224 777.891 122.104 755.498C123.146 747.535 123.146 723.586 122.104 716.281C120.021 701.253 117.263 691.373 113.28 684.368C108.684 676.405 102.985 673.83 96.3662 676.764C92.8732 678.321 86.9902 684.248 82.8844 690.415C81.1073 693.11 79.3914 695.325 79.085 695.325C78.7786 695.325 77.6756 694.547 76.5112 693.589C74.1826 691.553 71.67 686.883 70.1993 681.734C69.035 677.602 69.3414 677.782 61.2523 677.004C58.4947 676.764 57.0852 676.824 57.0852 677.243C57.0852 678.62 61.62 690.475 63.8261 694.726C66.7676 700.414 71.9152 706.821 76.2048 710.054C79.6365 712.688 85.8872 716.281 86.929 716.281C87.2354 716.281 88.2771 713.287 89.1351 709.695C91.7701 698.977 94.8955 692.271 97.5918 691.433C104.026 689.398 109.725 709.096 110.828 736.937C111.441 753.043 109.664 766.994 105.987 774.957C101.024 785.795 94.1601 786.154 84.0488 776.155C71.9764 764.18 58.3108 740.41 40.4168 700.414C35.5144 689.457 25.2192 664.849 25.2192 664.131C25.2192 663.412 30.7958 655.808 35.2693 650.42C46.4836 636.948 61.2523 624.734 76.2661 616.651C78.8399 615.214 80.2494 614.136 79.9429 613.717C79.7591 613.298 76.021 608.149 71.67 602.161C57.5142 582.702 50.8346 575.817 43.6034 573.122C40.0492 571.805 30.1217 570.847 20.3167 570.847L15.1079 570.787L13.6371 573.961C4.56758 592.941 1.3197 601.323 -0.825129 610.903C-1.37666 613.418 -1.98946 619.644 -2.17331 625.033C-2.60227 636.708 -1.62178 643.055 2.05507 653.832L4.56758 661.077L-1.80562 671.016C-5.29863 676.465 -8.36267 680.955 -8.60779 680.955C-9.46572 680.955 -13.8779 674.669 -16.0228 670.477C-25.5213 651.857 -25.5826 624.734 -16.1453 598.449C-5.23735 567.913 15.5368 546.119 39.2525 540.312C42.1327 539.593 45.7483 539.054 47.4029 539.054C50.2218 539.054 50.5895 539.234 55.1242 543.365C71.5475 558.274 88.5223 568.093 105.436 572.404C112.422 574.2 124.923 574.619 130.622 573.242C140.488 570.907 150.109 563.602 153.909 555.759C158.811 545.401 159.118 533.905 154.706 521.092C149.742 506.603 136.873 490.017 120.633 477.145L115.241 472.894L117.263 472.415C118.366 472.115 122.656 470.858 126.761 469.6C154.277 460.979 169.106 446.788 193.619 405.835C198.215 398.171 197.908 398.59 198.644 399.308C199.992 400.626 201.83 407.332 204.772 421.522C208.449 439.125 209.552 443.316 210.287 441.999C210.594 441.46 211.697 437.748 212.738 433.736C222.421 396.494 216.906 358.953 196.622 323.688C182.098 298.421 164.572 278.543 122.288 239.266C109.113 226.991 103.842 221.244 101.698 216.573C100.472 214.119 100.288 212.622 100.288 207.053C100.288 201.306 100.533 199.869 102.065 195.797C104.455 189.331 108.99 182.804 114.934 177.116C119.592 172.686 125.107 168.854 125.107 170.051C125.107 170.351 123.207 173.045 120.879 176.039C116.711 181.368 114.689 184.541 114.689 185.738C114.689 186.038 118.06 184.78 122.104 182.984C138.282 175.859 153.112 172.147 162.795 172.865C175.97 173.823 183.814 178.553 203.791 197.773L216.109 209.568L208.142 209.987C198.583 210.466 194.293 211.544 190.31 214.478C187.429 216.633 182.159 223.1 182.098 224.537C182.098 224.956 182.588 225.315 183.201 225.315C183.753 225.375 187.307 226.512 191.045 227.949C207.101 233.997 216.415 242.499 223.83 257.946L226.404 263.275L224.014 265.071C218.56 269.262 212.677 275.37 211.145 278.423C209.245 282.135 209.062 286.147 210.471 289.56C212.555 294.409 223.217 303.031 232.348 307.282L235.106 308.6L244.298 305.067L253.49 301.534L253.674 296.445L253.858 291.416L251.223 290.757C246.749 289.56 243.011 286.686 241.173 283.033C239.702 280.1 239.579 279.261 239.886 275.729C240.07 273.513 241.357 268.304 242.705 264.173L245.217 256.569L247.852 256.21C255.329 255.132 262.56 254.713 265.072 255.192C269.913 256.09 273.835 259.383 277.083 265.371C277.635 266.448 277.819 270.161 277.757 279.261L277.635 291.715L280.883 290.817C295.467 286.626 304.414 279.022 308.827 267.047C309.868 264.353 311.829 256.868 313.239 250.522C314.648 244.115 316.058 238.248 316.364 237.469C317.038 235.673 317.712 235.254 305.579 243.876C300.186 247.708 295.406 251.061 294.916 251.3C294.242 251.719 294.181 251.18 294.548 248.307C295.039 244.115 293.997 231.901 292.649 225.435C289.707 211.364 283.579 198.072 272.487 181.308C267.707 174.123 241.173 138.318 240.437 138.019C240.07 137.899 235.045 152.927 230.632 167.477L229.713 170.47L227.446 164.184C220.092 143.827 207.836 129.217 187.675 116.764C185.162 115.207 183.017 114.069 182.895 114.129C182.833 114.249 183.14 118.5 183.63 123.529C184.12 128.559 184.427 132.81 184.304 132.93C184.182 133.049 180.505 131.433 176.215 129.337C153.664 118.32 134.851 111.794 126.823 112.273L123.575 112.453L128.784 114.129C137.179 116.823 140.979 119.578 148.087 127.96C152.07 132.69 152.561 133.768 150.416 132.63C149.742 132.271 146.923 131.552 144.104 130.954C137.547 129.696 128.048 130.056 120.817 131.852C111.686 134.187 99.6141 140.474 88.7061 148.557C85.5195 150.952 85.2131 151.071 85.5808 149.814C86.3774 147.239 90.4832 140.114 97.8369 128.559C108.439 111.974 111.625 104.909 112.667 95.8676L113.035 92.4548L117.386 91.5567C129.642 88.9821 153.664 87.5451 167.268 88.6228L172.354 88.9821L167.82 93.2331C163.469 97.3644 160.65 100.897 159.792 103.531C159.424 104.729 159.669 104.789 167.207 105.148C186.326 106.046 202.933 109.938 217.886 116.943C234.003 124.427 247.852 134.606 270.22 155.143L278.922 163.166L277.022 158.795C273.468 150.473 265.562 135.205 260.599 127.241C246.382 104.19 228.733 85.3896 205.875 68.8644C194.661 60.6617 174.132 48.3876 174.132 49.7647C174.132 50.1239 175.48 53.417 177.134 57.189C178.789 60.9012 180.014 64.0147 179.953 64.1344C179.892 64.1943 175.296 63.5955 169.781 62.7573C148.945 59.6439 131.419 57.9075 124.923 58.3865L121.307 58.626L111.074 53.0577C89.6253 41.2626 76.8789 36.0535 62.6005 33.4191L60.4557 33L63.2133 35.2153ZM264.092 196.216C270.771 205.676 272.977 211.903 272.977 221.124C272.977 227.411 271.691 236.212 270.833 235.973C269.484 235.494 262.131 225.794 259.925 221.483C255.941 213.64 255.574 208.79 257.902 195.498C259.067 189.031 259.067 189.031 264.092 196.216ZM-12.1621 383.083C-1.80562 397.333 4.44502 405.595 10.6957 413.319C14.1887 417.69 14.1887 417.69 11.2472 414.516L8.12187 411.223L3.40325 413.558C-9.28188 419.905 -29.8722 434.993 -43.783 448.166L-51.8107 455.829L-52.2397 452.656C-52.4235 450.98 -52.6074 445.352 -52.6074 440.202C-52.6074 417.929 -45.9891 398.53 -30.5463 375.718L-24.357 366.557L-23.2539 367.935C-22.6411 368.713 -17.6773 375.479 -12.1621 383.083ZM158.627 381.706C158.382 387.633 157.892 391.166 156.666 395.357C154.706 402.302 149.558 412.72 145.207 418.408C138.466 427.329 127.987 435.891 118.06 440.741C112.912 443.256 107.703 444.813 98.2659 446.788L90.1156 448.465L82.6393 442.178C78.5335 438.706 73.8149 434.694 72.099 433.197C67.9932 429.605 52.1215 414.337 52.3053 414.157C54.0212 412.66 88.0933 395.836 97.2241 392.064C112.483 385.717 129.09 380.269 144.104 376.796C148.639 375.718 153.235 374.64 154.215 374.401C155.257 374.102 156.728 373.862 157.524 373.862L158.995 373.802L158.627 381.706ZM43.297 404.338C43.9098 404.996 44.2775 405.535 44.0937 405.535C43.9098 405.535 43.297 404.996 42.6842 404.338C42.0714 403.679 41.7037 403.14 41.8876 403.14C42.0714 403.14 42.6842 403.679 43.297 404.338ZM15.7207 419.306C16.3335 419.965 16.7012 420.504 16.5173 420.504C16.3335 420.504 15.7207 419.965 15.1079 419.306C14.4951 418.648 14.1274 418.109 14.3112 418.109C14.4951 418.109 15.1079 418.648 15.7207 419.306ZM18.4783 422.599C19.275 423.438 19.7652 424.096 19.5814 424.096C19.4588 424.096 18.6622 423.438 17.8655 422.599C17.0689 421.761 16.5786 421.103 16.7625 421.103C16.885 421.103 17.6817 421.761 18.4783 422.599ZM38.5171 594.078C42.8068 596.054 47.7705 599.527 50.9571 602.76L53.0407 604.915L51.6312 605.933C44.5839 610.723 31.8375 624.195 21.236 638.086L17.6204 642.816L16.885 641.079C14.4951 635.391 13.4533 622.638 14.8015 615.753C15.7207 610.903 18.7234 604.317 22.8293 597.79C25.403 593.779 27.1189 591.743 27.9156 591.623C30.1829 591.264 34.5952 592.282 38.5171 594.078Z" fill="#1B1B1B"/>
<path d="M1377.46 35.2153C1370.84 40.604 1363.61 48.5073 1361.28 52.8781L1358.89 57.2489L1363.43 56.8897C1391 54.4947 1425.63 55.0934 1448.85 58.3266C1456.76 59.4044 1471.16 62.2184 1471.77 62.8172C1472.14 63.1764 1472.51 62.9968 1460.62 68.0861C1454.61 70.6607 1449.83 72.876 1449.89 72.9957C1450.02 73.0556 1453.69 73.7142 1458.04 74.4327C1486.91 79.1029 1510.19 87.9642 1533.42 103.232C1568.11 126.044 1595.13 162.986 1600.77 195.318C1602.12 203.162 1601.93 213.34 1600.4 213.34C1600.09 213.34 1596.72 211.604 1592.86 209.448C1589 207.293 1585.75 205.557 1585.69 205.557C1585.57 205.557 1585.45 209.269 1585.45 213.819C1585.32 225.674 1583.85 234.416 1573.8 283.093C1562.34 338.716 1559.71 358.115 1561.18 376.916C1563.33 404.158 1570.99 426.012 1585.69 446.549L1589.12 451.339L1585.75 448.645C1579.99 444.034 1568.11 432.419 1563.02 426.491C1548.19 409.248 1537.71 388.411 1533.42 367.635C1530.85 355.181 1530.36 349.733 1530.42 333.986C1530.48 309.857 1533.79 287.284 1542.61 251.36C1545.12 241.182 1545.8 233.278 1544.82 224.537C1541.45 194.36 1521.16 174.183 1476.12 156.28C1471.59 154.484 1467.3 152.868 1466.69 152.628C1466.07 152.389 1465.64 152.149 1465.77 152.029C1466.81 151.011 1491.81 148.676 1501.8 148.676L1507.68 148.616L1503.02 144.306C1487.64 129.936 1461.54 118.859 1431.69 114.009C1427.65 113.351 1421.83 112.632 1418.83 112.393L1413.31 112.034L1419.74 117.841C1449.4 144.785 1471.1 172.746 1488.32 206.155C1494.26 217.771 1501 232.38 1500.51 232.799C1500.39 232.919 1495.3 227.89 1489.3 221.543C1458.17 189.091 1451.61 182.745 1439.54 173.704C1429.24 165.92 1416.56 158.556 1405.22 153.826C1398.97 151.251 1389.1 147.898 1388.74 148.257C1388.55 148.437 1389.96 150.832 1391.8 153.586C1400.75 166.998 1407.79 182.745 1414.23 203.76L1416.5 211.185L1418.09 208.85C1418.95 207.532 1422.93 201.425 1426.91 195.258L1434.27 184.122L1442.72 196.156C1451.55 208.73 1467.42 230.584 1478.76 245.792C1482.37 250.701 1485.19 254.653 1485.07 254.653C1484.95 254.653 1480.47 252.258 1475.14 249.384C1463.62 243.097 1455.72 238.308 1447.87 232.799C1444.75 230.584 1441.87 228.668 1441.5 228.548C1440.46 228.129 1436.41 235.254 1434.76 240.403C1433.41 244.654 1432.25 250.522 1430.96 259.683L1430.47 263.215L1422.81 255.192C1409.2 241.002 1402.52 232.919 1397.13 224.177C1395.66 221.842 1394.25 220.106 1393.95 220.345C1393.7 220.585 1391.98 224.716 1390.08 229.506C1388.18 234.296 1385.49 241.002 1384.08 244.475C1380.52 253.396 1375.5 262.676 1371.76 267.167C1368.64 270.939 1362.69 276.208 1361.53 276.208C1361.16 276.208 1360.91 273.753 1360.91 270.58C1360.91 259.982 1358.89 251.18 1355.64 247.588L1354.24 245.971L1352.64 247.768C1349.33 251.54 1338.91 265.311 1336.28 269.322C1326.47 284.291 1319.73 301.115 1316.79 317.88C1315.51 325.005 1314.1 343.506 1314.46 348.356L1314.65 351.349L1318.81 343.207C1321.08 338.716 1325.13 331.831 1327.7 327.939C1336.89 314.228 1345.23 305.726 1365.08 289.859C1371.39 284.83 1378.81 278.722 1381.57 276.387C1384.32 273.992 1386.65 272.017 1386.78 272.017C1387.33 272.017 1393.45 279.86 1396.21 284.051C1400.2 289.979 1404.98 300.217 1408.35 309.617C1411.04 317.281 1416.74 338.477 1417.6 344.045L1418.03 346.679L1412.57 347.398C1409.63 347.817 1406.2 348.236 1404.98 348.476L1402.77 348.775L1402.34 342.309C1401.48 329.376 1399.22 318.718 1395.84 311.593C1394.31 308.42 1388.98 298.96 1388.06 297.822C1387.69 297.343 1383.77 301.355 1376.79 309.198C1351.29 337.818 1346.94 351.17 1359.38 363.264C1363.73 367.575 1367.59 370.389 1383.53 380.987C1391.13 386.016 1398.91 391.285 1400.93 392.722C1402.95 394.159 1404.79 395.357 1405.04 395.357C1405.77 395.357 1412.51 386.136 1418.09 377.455C1427.16 363.264 1435.74 344.883 1449.83 309.617C1455.29 295.906 1456.33 293.751 1457.19 294.23C1459.52 295.427 1475.75 311.952 1481.15 318.539C1487.89 326.801 1490.22 330.034 1494.51 336.74C1510.13 361.348 1519.69 389.848 1524.47 425.952C1527.23 446.908 1528.52 472.355 1529.13 520.493C1529.44 545.76 1529.68 555.998 1530.36 568.991L1530.66 574.679L1526.19 565.698C1514.24 541.868 1497.33 516.901 1476.74 492.652C1460.37 473.432 1435.19 448.824 1418.95 436.071C1416.68 434.335 1414.84 432.658 1414.84 432.419C1414.84 432.179 1416.25 430.263 1417.97 428.168L1421.09 424.396L1418.15 427.389C1416.56 429.006 1412.57 433.077 1409.33 436.37C1401.73 444.154 1396.27 449.124 1389.23 454.572C1386.1 457.027 1383.77 459.182 1384.02 459.422C1384.26 459.661 1387.14 460.859 1390.33 462.116C1409.57 469.72 1441.32 486.066 1457.74 496.723C1464.11 500.914 1469.38 504.866 1469.38 505.585C1469.38 505.884 1466.13 504.507 1462.15 502.591C1442.23 492.712 1422.01 487.263 1388.49 482.833C1383.28 482.114 1373.97 480.917 1367.78 480.078L1356.56 478.582L1349.39 483.312C1318.26 503.729 1300.98 524.804 1303.92 538.695C1307.11 553.783 1330.27 554.681 1349.58 540.551C1359.81 533.067 1368.64 522.289 1374.46 510.015L1376.42 505.944L1384.45 506.303C1393.33 506.662 1398.85 507.62 1407.49 510.375C1424.83 515.943 1440.21 525.942 1454.74 541.21C1473.49 560.848 1486.42 589.169 1489.54 617.609C1490.4 625.093 1490.4 638.624 1489.54 646.109C1486.48 673.89 1475.2 700.833 1456.08 725.98C1453.88 728.914 1451.98 731.249 1451.86 731.249C1451.73 731.249 1445.91 719.933 1438.93 706.102C1432 692.271 1426.12 680.955 1425.87 680.955C1425.69 680.955 1422.93 686.823 1419.74 694.008C1404.79 727.956 1393.64 749.271 1380.77 768.072C1369.92 784.058 1361.16 793.039 1352.4 797.29C1347.31 799.745 1341.3 799.985 1337.32 797.889C1328.19 793.159 1321.45 777.891 1318.57 755.498C1317.53 747.535 1317.53 723.586 1318.57 716.281C1320.65 701.253 1323.41 691.373 1327.39 684.368C1331.99 676.405 1337.69 673.83 1344.31 676.764C1347.8 678.321 1353.68 684.248 1357.79 690.415C1359.57 693.11 1361.28 695.325 1361.59 695.325C1361.9 695.325 1363 694.547 1364.16 693.589C1366.49 691.553 1369 686.883 1370.47 681.734C1371.64 677.602 1371.33 677.782 1379.42 677.004C1382.18 676.764 1383.59 676.824 1383.59 677.243C1383.59 678.62 1379.05 690.475 1376.85 694.726C1373.91 700.414 1368.76 706.821 1364.47 710.054C1361.04 712.688 1354.79 716.281 1353.74 716.281C1353.44 716.281 1352.4 713.287 1351.54 709.695C1348.9 698.977 1345.78 692.271 1343.08 691.433C1336.65 689.398 1330.95 709.096 1329.85 736.937C1329.23 753.043 1331.01 766.994 1334.69 774.957C1339.65 785.795 1346.51 786.154 1356.63 776.155C1368.7 764.18 1382.36 740.41 1400.26 700.414C1405.16 689.457 1415.45 664.849 1415.45 664.131C1415.45 663.412 1409.88 655.808 1405.4 650.42C1394.19 636.948 1379.42 624.734 1364.41 616.651C1361.83 615.214 1360.42 614.136 1360.73 613.717C1360.91 613.298 1364.65 608.149 1369 602.161C1383.16 582.702 1389.84 575.817 1397.07 573.122C1400.62 571.805 1410.55 570.847 1420.36 570.847L1425.57 570.787L1427.04 573.961C1436.11 592.941 1439.35 601.323 1441.5 610.903C1442.05 613.418 1442.66 619.644 1442.85 625.033C1443.28 636.708 1442.3 643.055 1438.62 653.832L1436.11 661.077L1442.48 671.016C1445.97 676.465 1449.04 680.955 1449.28 680.955C1450.14 680.955 1454.55 674.669 1456.7 670.477C1466.2 651.857 1466.26 624.734 1456.82 598.449C1445.91 567.913 1425.14 546.119 1401.42 540.312C1398.54 539.593 1394.93 539.054 1393.27 539.054C1390.45 539.054 1390.08 539.234 1385.55 543.365C1369.13 558.274 1352.15 568.093 1335.24 572.404C1328.25 574.2 1315.75 574.619 1310.05 573.242C1300.19 570.907 1290.56 563.602 1286.76 555.759C1281.86 545.401 1281.56 533.905 1285.97 521.092C1290.93 506.603 1303.8 490.017 1320.04 477.145L1325.43 472.894L1323.41 472.415C1322.31 472.115 1318.02 470.858 1313.91 469.6C1286.4 460.979 1271.57 446.788 1247.05 405.835C1242.46 398.171 1242.77 398.59 1242.03 399.308C1240.68 400.626 1238.84 407.332 1235.9 421.522C1232.23 439.125 1231.12 443.316 1230.39 441.999C1230.08 441.46 1228.98 437.748 1227.94 433.736C1218.25 396.494 1223.77 358.953 1244.05 323.688C1258.58 298.421 1276.1 278.543 1318.39 239.266C1331.56 226.991 1336.83 221.244 1338.98 216.573C1340.2 214.119 1340.39 212.622 1340.39 207.053C1340.39 201.306 1340.14 199.869 1338.61 195.797C1336.22 189.331 1331.68 182.804 1325.74 177.116C1321.08 172.686 1315.57 168.854 1315.57 170.051C1315.57 170.351 1317.47 173.045 1319.8 176.039C1323.96 181.368 1325.98 184.541 1325.98 185.738C1325.98 186.038 1322.61 184.78 1318.57 182.984C1302.39 175.859 1287.56 172.147 1277.88 172.865C1264.7 173.823 1256.86 178.553 1236.88 197.773L1224.56 209.568L1232.53 209.987C1242.09 210.466 1246.38 211.544 1250.36 214.478C1253.24 216.633 1258.51 223.1 1258.58 224.537C1258.58 224.956 1258.09 225.315 1257.47 225.315C1256.92 225.375 1253.37 226.512 1249.63 227.949C1233.57 233.997 1224.26 242.499 1216.84 257.946L1214.27 263.275L1216.66 265.071C1222.11 269.262 1228 275.37 1229.53 278.423C1231.43 282.135 1231.61 286.147 1230.2 289.56C1228.12 294.409 1217.46 303.031 1208.33 307.282L1205.57 308.6L1196.38 305.067L1187.18 301.534L1187 296.445L1186.82 291.416L1189.45 290.757C1193.92 289.56 1197.66 286.686 1199.5 283.033C1200.97 280.1 1201.09 279.261 1200.79 275.729C1200.6 273.513 1199.32 268.304 1197.97 264.173L1195.46 256.569L1192.82 256.21C1185.35 255.132 1178.11 254.713 1175.6 255.192C1170.76 256.09 1166.84 259.383 1163.59 265.371C1163.04 266.448 1162.86 270.161 1162.92 279.261L1163.04 291.715L1159.79 290.817C1145.21 286.626 1136.26 279.022 1131.85 267.047C1130.81 264.353 1128.84 256.868 1127.43 250.522C1126.03 244.115 1124.62 238.248 1124.31 237.469C1123.64 235.673 1122.96 235.254 1135.09 243.876C1140.49 247.708 1145.27 251.061 1145.76 251.3C1146.43 251.719 1146.49 251.18 1146.13 248.307C1145.64 244.115 1146.68 231.901 1148.03 225.435C1150.97 211.364 1157.09 198.072 1168.19 181.308C1172.97 174.123 1199.5 138.318 1200.24 138.019C1200.6 137.899 1205.63 152.927 1210.04 167.477L1210.96 170.47L1213.23 164.184C1220.58 143.827 1232.84 129.217 1253 116.764C1255.51 115.207 1257.66 114.069 1257.78 114.129C1257.84 114.249 1257.53 118.5 1257.04 123.529C1256.55 128.559 1256.25 132.81 1256.37 132.93C1256.49 133.049 1260.17 131.433 1264.46 129.337C1287.01 118.32 1305.82 111.794 1313.85 112.273L1317.1 112.453L1311.89 114.129C1303.49 116.823 1299.7 119.578 1292.59 127.96C1288.6 132.69 1288.11 133.768 1290.26 132.63C1290.93 132.271 1293.75 131.552 1296.57 130.954C1303.13 129.696 1312.63 130.056 1319.86 131.852C1328.99 134.187 1341.06 140.474 1351.97 148.557C1355.15 150.952 1355.46 151.071 1355.09 149.814C1354.3 147.239 1350.19 140.114 1342.84 128.559C1332.24 111.974 1329.05 104.909 1328.01 95.8676L1327.64 92.4548L1323.29 91.5567C1311.03 88.9821 1287.01 87.5451 1273.41 88.6228L1268.32 88.9821L1272.85 93.2331C1277.21 97.3644 1280.02 100.897 1280.88 103.531C1281.25 104.729 1281 104.789 1273.47 105.148C1254.35 106.046 1237.74 109.938 1222.79 116.943C1206.67 124.427 1192.82 134.606 1170.45 155.143L1161.75 163.166L1163.65 158.795C1167.21 150.473 1175.11 135.205 1180.08 127.241C1194.29 104.19 1211.94 85.3896 1234.8 68.8644C1246.01 60.6617 1266.54 48.3876 1266.54 49.7647C1266.54 50.1239 1265.19 53.417 1263.54 57.189C1261.88 60.9012 1260.66 64.0147 1260.72 64.1344C1260.78 64.1943 1265.38 63.5955 1270.89 62.7573C1291.73 59.6439 1309.25 57.9075 1315.75 58.3865L1319.37 58.626L1329.6 53.0577C1351.05 41.2626 1363.79 36.0535 1378.07 33.4191L1380.22 33L1377.46 35.2153ZM1176.58 196.216C1169.9 205.676 1167.7 211.903 1167.7 221.124C1167.7 227.411 1168.98 236.212 1169.84 235.973C1171.19 235.494 1178.54 225.794 1180.75 221.483C1184.73 213.64 1185.1 208.79 1182.77 195.498C1181.61 189.031 1181.61 189.031 1176.58 196.216ZM1452.84 383.083C1442.48 397.333 1436.23 405.595 1429.98 413.319C1426.49 417.69 1426.49 417.69 1429.43 414.516L1432.55 411.223L1437.27 413.558C1449.96 419.905 1470.55 434.993 1484.46 448.166L1492.48 455.829L1492.91 452.656C1493.1 450.98 1493.28 445.352 1493.28 440.202C1493.28 417.929 1486.66 398.53 1471.22 375.718L1465.03 366.557L1463.93 367.935C1463.31 368.713 1458.35 375.479 1452.84 383.083ZM1282.05 381.706C1282.29 387.633 1282.78 391.166 1284.01 395.357C1285.97 402.302 1291.12 412.72 1295.47 418.408C1302.21 427.329 1312.69 435.891 1322.61 440.741C1327.76 443.256 1332.97 444.813 1342.41 446.788L1350.56 448.465L1358.03 442.178C1362.14 438.706 1366.86 434.694 1368.57 433.197C1372.68 429.605 1388.55 414.337 1388.37 414.157C1386.65 412.66 1352.58 395.836 1343.45 392.064C1328.19 385.717 1311.58 380.269 1296.57 376.796C1292.04 375.718 1287.44 374.64 1286.46 374.401C1285.42 374.102 1283.95 373.862 1283.15 373.862L1281.68 373.802L1282.05 381.706ZM1397.38 404.338C1396.76 404.996 1396.4 405.535 1396.58 405.535C1396.76 405.535 1397.38 404.996 1397.99 404.338C1398.6 403.679 1398.97 403.14 1398.79 403.14C1398.6 403.14 1397.99 403.679 1397.38 404.338ZM1424.95 419.306C1424.34 419.965 1423.97 420.504 1424.16 420.504C1424.34 420.504 1424.95 419.965 1425.57 419.306C1426.18 418.648 1426.55 418.109 1426.36 418.109C1426.18 418.109 1425.57 418.648 1424.95 419.306ZM1422.2 422.599C1421.4 423.438 1420.91 424.096 1421.09 424.096C1421.21 424.096 1422.01 423.438 1422.81 422.599C1423.6 421.761 1424.1 421.103 1423.91 421.103C1423.79 421.103 1422.99 421.761 1422.2 422.599ZM1402.16 594.078C1397.87 596.054 1392.9 599.527 1389.72 602.76L1387.63 604.915L1389.04 605.933C1396.09 610.723 1408.84 624.195 1419.44 638.086L1423.05 642.816L1423.79 641.079C1426.18 635.391 1427.22 622.638 1425.87 615.753C1424.95 610.903 1421.95 604.317 1417.84 597.79C1415.27 593.779 1413.55 591.743 1412.76 591.623C1410.49 591.264 1406.08 592.282 1402.16 594.078Z" fill="#1B1B1B"/>
</g>
<defs>
<clipPath id="clip0">
<rect width="1440" height="884" fill="white"/>
</clipPath>
</defs>
</svg>
