<svg width="38" height="38" viewBox="0 0 38 38" fill="none" xmlns="http://www.w3.org/2000/svg">
<path d="M17.3528 19.0083H20.9V30.4H24.7V19.0083H28.4666V15.2083H24.7V13.3C24.7 12.2507 25.5507 11.4 26.6 11.4H28.5V7.6H26.6C23.452 7.6 20.9 10.152 20.9 13.3V15.2083H17.3528V19.0083Z" fill="white"/>
<path fill-rule="evenodd" clip-rule="evenodd" d="M3.8 0H34.2C36.2987 0 38 1.70132 38 3.8V34.2C38 36.2987 36.2987 38 34.2 38H3.8C1.70132 38 0 36.2987 0 34.2V3.8C0 1.70132 1.70132 0 3.8 0ZM3.8 3.8V34.2H34.2V3.8H3.8Z" fill="white"/>
</svg>
