<svg width="38" height="38" viewBox="0 0 38 38" fill="none" xmlns="http://www.w3.org/2000/svg">
<path fill-rule="evenodd" clip-rule="evenodd" d="M19 28.5C13.7533 28.5 9.5 24.2467 9.5 19C9.5 13.7533 13.7533 9.5 19 9.5C24.2467 9.5 28.5 13.7533 28.5 19C28.5 24.2467 24.2467 28.5 19 28.5ZM19 24.7C22.148 24.7 24.7 22.148 24.7 19C24.7 15.852 22.148 13.3 19 13.3C15.852 13.3 13.3 15.852 13.3 19C13.3 22.148 15.852 24.7 19 24.7Z" fill="white"/>
<path d="M30.4 9.5C30.4 10.5493 29.5493 11.4 28.5 11.4C27.4507 11.4 26.6 10.5493 26.6 9.5C26.6 8.45066 27.4507 7.6 28.5 7.6C29.5493 7.6 30.4 8.45066 30.4 9.5Z" fill="white"/>
<path fill-rule="evenodd" clip-rule="evenodd" d="M26.6 0H11.4C5.10395 0 0 5.10395 0 11.4V26.6C0 32.896 5.10395 38 11.4 38H26.6C32.896 38 38 32.896 38 26.6V11.4C38 5.10395 32.896 0 26.6 0ZM3.8 11.4C3.8 7.20264 7.20264 3.8 11.4 3.8H26.6C30.7974 3.8 34.2 7.20264 34.2 11.4V26.6C34.2 30.7974 30.7974 34.2 26.6 34.2H11.4C7.20264 34.2 3.8 30.7974 3.8 26.6V11.4Z" fill="white"/>
</svg>
