<svg width="39" height="36" viewBox="0 0 39 36" fill="none" xmlns="http://www.w3.org/2000/svg">
<path fill-rule="evenodd" clip-rule="evenodd" d="M36.313 4.75316L39 5.06625L37.7922 7.48143C37.2032 8.65922 36.6136 9.83701 36.0234 11.0148C35.9534 11.2642 35.8304 11.4829 35.6485 11.7677C35.5725 11.8866 35.3128 12.2651 35.3007 12.2832C35.2321 12.3858 35.1814 12.4667 35.1449 12.5316V17.0578C35.1449 28.64 23.9108 36 13.3016 36C11.1307 36 9.48125 35.8962 7.59258 35.485C4.48445 34.8083 2.17138 33.463 1.11292 31.112L0.0231913 28.6915L2.67148 28.4485C5.06725 28.2286 7.14444 27.7733 8.73962 27.1635C4.36027 26.4607 1.9061 24.5416 1.9061 20.9376V19.0426H3.80536C4.22266 19.0426 4.59893 19.0088 4.93532 18.9468C1.64856 16.986 0.00232043 13.8406 0.00232043 9.47785C0.00196129 9.2919 0.00196129 9.2919 0.000840521 9.09307C-0.0115068 6.89403 0.106876 5.71903 0.710226 4.21938C1.09691 3.25827 1.65584 2.36852 2.40808 1.55327L3.84128 0L5.2347 1.58889C9.82667 6.82502 14.3659 10.0017 19.0006 10.3859C19.0204 5.55431 22.6801 1.89788 27.5476 1.89788C29.8167 1.89788 31.875 2.75724 33.4925 4.3068C34.3778 4.48831 35.3181 4.63722 36.313 4.75316ZM32.114 7.88699L31.5317 7.75545L31.1296 7.31519C30.1574 6.25072 28.9371 5.68786 27.5476 5.68786C24.769 5.68786 22.799 7.66318 22.799 10.4253C22.799 10.8768 22.7873 11.1604 22.7309 11.5332C22.506 13.0208 21.6698 14.2153 19.9501 14.2153C14.256 14.2153 9.11904 11.1718 4.1098 5.97355C3.85156 6.7568 3.79083 7.56192 3.79931 9.07184C3.80045 9.27378 3.80045 9.27378 3.80085 9.47785C3.80085 13.3588 5.37669 15.4817 9.10785 16.6649L10.4318 17.0848V18.4709C10.4318 20.1517 8.83579 21.7339 6.50058 22.4427C7.57106 23.253 9.76032 23.6903 13.3022 23.6903H15.2015V25.5853C15.2015 28.3003 12.0748 30.4261 7.35157 31.5362C8.89193 32.0071 10.9429 32.21 13.3016 32.21C22.0656 32.21 31.3464 26.1297 31.3464 17.0578V12.3203C31.3464 11.7636 31.5082 11.2804 31.7769 10.7779C31.8819 10.5815 31.9976 10.3942 32.1403 10.1806C32.1672 10.1404 32.2669 9.99469 32.3461 9.87821L32.4966 9.57784C32.7406 9.09113 32.9844 8.60442 33.2281 8.11771C32.8493 8.04613 32.478 7.96923 32.114 7.88699Z" fill="white"/>
</svg>
